<?xml version="1.0" encoding="utf-8"?>
<!-- Generator: Adobe Illustrator 27.0.0, SVG Export Plug-In . SVG Version: 6.00 Build 0)  -->
<svg version="1.1" id="Camada_2_00000088844997657669328770000009519880962953736612_"
	 xmlns="http://www.w3.org/2000/svg" xmlns:xlink="http://www.w3.org/1999/xlink" x="0px" y="0px" viewBox="0 0 133.6 384.1"
	 style="enable-background:new 0 0 133.6 384.1;" xml:space="preserve">
<style type="text/css">
	.st0{fill:#5B413C;}
	.st1{fill:#36251F;}
	.st2{fill:#B5591D;}
	.st3{fill:#493017;}
	.st4{fill:#7C5835;}
	.st5{fill:#2B2F30;}
	.st6{fill:#1C1C1C;}
	.st7{fill:#F4ECE1;}
	.st8{fill:#074CD8;}
	.st9{fill:#8F2D00;}
	.st10{fill:#E0693E;}
	.st11{fill:#002672;}
	.st12{opacity:0.8;}
</style>
<g id="OBJECTS">
	<g>
		<g>
			<path class="st0" d="M4.9,110.5c0,0-3.8,2.9-4.6,5.9c-0.9,3.1,0.6,6,2.9,6.4c0,0-1.1,13.4,0.5,16.7s6-0.4,6-0.4
				S6.5,115.6,4.9,110.5L4.9,110.5z"/>
			<path class="st0" d="M8.2,145.3c0,0-3.8,2.9-4.6,5.9s0.6,6,2.9,6.4c0,0-1.1,13.4,0.5,16.7s6-0.4,6-0.4S9.9,150.4,8.2,145.3
				L8.2,145.3z"/>
			<path class="st1" d="M5.9,99.1c0,0-3.8,2.7,0.2,28.6s-1.9,45.7,9.4,56.2c11.3,10.5,39.4-12.7,39.4-12.7L39.6,88.7
				C27.8,83.7,9.7,88.9,5.9,99.1L5.9,99.1z"/>
			<path class="st0" d="M27.5,181.3c-2.6,0.2-5.5-0.2-7.9-1.6c-2.9-1.8-4.8-6.3-5.8-13.9c-0.8-6.4-0.9-13.9-0.9-20.4
				c0-3.7,0-7.1-0.2-9.7c-0.7-11.5-6.3-32-6.4-32.2c-0.1-0.2,0.1-0.4,0.3-0.5c0.2-0.1,0.4,0.1,0.5,0.3c0.1,0.2,5.7,20.8,6.4,32.3
				c0.2,2.6,0.2,6.1,0.2,9.8c0.1,12.6,0.1,29.8,6.3,33.6c4.3,2.6,10.4,1.3,13.6,0.3c5.6-1.8,10.9-5.3,12-7.9
				c0.1-0.2,0.3-0.3,0.5-0.2c0.2,0.1,0.3,0.3,0.2,0.5c-1.2,2.9-6.6,6.4-12.5,8.4C32.2,180.6,29.9,181.2,27.5,181.3L27.5,181.3z"/>
		</g>
		<g>
			<g>
				<polygon class="st2" points="19.7,353.1 19.1,361.6 33.3,361.6 33.9,353.1 				"/>
				<path class="st3" d="M31.1,184.6c0,0-10.4,77.2,0.5,88.3c4.4,4.4,19.5,10.2,21.5,1.1c3.5-16.3,10-48.1,10.8-64.9L31.1,184.6
					L31.1,184.6z"/>
				<path class="st3" d="M54.2,269.5c0,0,0.1,5.6-5.5,30.1c-4.8,21-12.1,55.1-12.1,55.1s-12.1,1.2-19.3-1.8l9.3-111.4L54.2,269.5
					L54.2,269.5z"/>
				<path class="st4" d="M33.9,348.4c-0.1,0-0.1,0-0.2,0c-0.5-0.1-0.9-0.6-0.8-1.2c0.6-3.1,2.5-11,4.8-21.1
					c4.4-19,10.5-45.1,11.2-52c0,0,0-0.1,0-0.1c2.4-11,8.4-52.3,8.5-52.7c0.1-0.6,0.6-0.9,1.1-0.8c0.5,0.1,0.9,0.6,0.8,1.1
					c-0.1,0.4-6.1,41.6-8.5,52.8c-0.8,7.1-6.8,33.2-11.2,52.2c-2.2,9.6-4.2,17.9-4.8,21C34.8,348,34.4,348.4,33.9,348.4z"/>
				<path class="st4" d="M34.7,348.7c-7.5,0-15.6-2-16-2c-0.4-0.1-0.6-0.5-0.5-0.8c0.1-0.4,0.5-0.6,0.8-0.5c0.1,0,10,2.4,17.8,2
					c0.4,0,0.7,0.3,0.7,0.6s-0.3,0.7-0.7,0.7C36.2,348.7,35.4,348.8,34.7,348.7L34.7,348.7z"/>
				<g>
					<g>
						<path class="st5" d="M37.7,380.9c0,0.1,0,0.2,0,0.4c0,0.5,0,1-0.1,1.4c0,0.9-0.1,1.5-0.1,1.5h-30c0,0-0.2-1.2,0-2.9
							c0.2-3.1,1.2-7.9,5.4-11.1c5.7-4.4,3.5-3.5,4.6-5.5c0.1-0.2,1.1-3.6,1.3-3.9c1-2.1,1.9-3.1,7.2-3.1c7.1,0,7.8,3.5,8.5,5.3
							c0.3,0.8,0.7,2.3,1.2,4.2c0.2,0.8,0.4,1.6,0.5,2.4c0.4,2.1,0.8,4.2,1.1,5.9C37.7,377.5,37.7,379.4,37.7,380.9L37.7,380.9z"/>
						<path class="st6" d="M37.7,380.9c0,0.1,0,0.2,0,0.4c0,0.5,0,1-0.1,1.4c-1.5-1-2.5-2.4-3.1-4c-1.9-5,1-11.1,1.1-11.4l0.1,0
							c0.2,0.8,0.4,1.6,0.5,2.4c-0.7,2.1-1.5,5.5-0.4,8.5C36.3,379.2,36.9,380.1,37.7,380.9L37.7,380.9z"/>
						<path class="st6" d="M37.7,381.2c0,1.7-0.2,2.9-0.2,2.9h-30c0,0-0.2-1.2,0-2.9H37.7L37.7,381.2z"/>
					</g>
					<path class="st7" d="M27,367.1c-0.1,0-0.1,0-0.2,0c-3.8-1-6.9-0.1-7-0.1c-0.5,0.1-0.9-0.1-1-0.6c-0.1-0.5,0.1-0.9,0.6-1
						c0.1,0,3.6-1,7.8,0.1c0.5,0.1,0.7,0.6,0.6,1C27.7,366.9,27.4,367.1,27,367.1L27,367.1z"/>
					<path class="st7" d="M27.3,364.1c-0.1,0-0.1,0-0.2,0c-3.8-1-6.9-0.1-7-0.1c-0.5,0.1-0.9-0.1-1-0.6c-0.1-0.5,0.1-0.9,0.6-1
						c0.1,0,3.6-1,7.8,0.1c0.5,0.1,0.7,0.6,0.6,1C28.1,363.9,27.7,364.1,27.3,364.1L27.3,364.1z"/>
					<path class="st7" d="M25.7,369.8c-0.1,0-0.1,0-0.2,0c-3.8-1-6.9-0.1-7-0.1c-0.5,0.1-0.9-0.1-1-0.6c-0.1-0.5,0.1-0.9,0.6-1
						c0.1,0,3.6-1,7.8,0.1c0.5,0.1,0.7,0.6,0.6,1C26.4,369.6,26.1,369.8,25.7,369.8L25.7,369.8z"/>
					<path class="st7" d="M24.2,372.9c-0.1,0-0.1,0-0.2,0c-3.8-1-6.9-0.1-7-0.1c-0.5,0.1-0.9-0.1-1.1-0.6c-0.1-0.5,0.1-0.9,0.6-1
						c0.1,0,3.6-1,7.8,0.1c0.5,0.1,0.7,0.6,0.6,1C24.9,372.7,24.6,372.9,24.2,372.9L24.2,372.9z"/>
				</g>
			</g>
			<path class="st3" d="M31.6,181.1c0,0-3.4,20.8-1.1,29.2c2.3,8.3,58.8,15.5,62.7,7.9c7.2-14.2,4.6-27.9,4.2-31.6
				C71.6,192.5,50.3,189.3,31.6,181.1L31.6,181.1z"/>
			<g>
				<g>
					<polygon class="st2" points="87.9,353.4 89.3,363.8 102.2,363.8 100.8,353.4 					"/>
					<path class="st5" d="M133.1,384.1h-47c-0.3-0.6-0.5-1.5-0.6-2.6c-0.3-4,1-10.3,1.6-14.3c0.1-0.5,0.1-0.9,0.2-1.3
						c0.1-0.7,0.1-1.2,0.1-1.6c0-3.3,2.9-2.7,2.9-2.7c4.8,4.7,10.1-2.3,13.3,0c0,0,1.3,1,5.1,4.3c3.7,3.4,10.1,5.6,15.5,7.8
						c7,2.9,8.9,5.8,9.3,7.8C133.8,383.1,133.1,384.1,133.1,384.1L133.1,384.1z"/>
					<path class="st6" d="M133.1,384.1h-47c-0.3-0.6-0.5-1.5-0.6-2.6h48C133.8,383.1,133.1,384.1,133.1,384.1L133.1,384.1z"/>
					<path class="st6" d="M90.9,384.1h-1.4c1.4-1.6,2.7-4,2.5-7.5c-0.2-4.6-3-7.8-4.9-9.4c0.1-0.5,0.1-0.9,0.2-1.3
						c2.1,1.6,5.6,5.1,5.9,10.6C93.3,379.9,92.2,382.4,90.9,384.1L90.9,384.1z"/>
					<path class="st7" d="M107.7,368.3c-0.3,0-0.7-0.2-0.8-0.6c-0.1-0.4,0.2-0.8,0.6-0.9l2.9-0.7c0.4-0.1,0.8,0.1,0.9,0.6
						c0.1,0.4-0.2,0.8-0.6,0.9l-2.9,0.7C107.8,368.3,107.8,368.3,107.7,368.3L107.7,368.3z"/>
					<path class="st7" d="M104.8,366c-0.3,0-0.7-0.2-0.8-0.6c-0.1-0.4,0.2-0.8,0.6-0.9l2.9-0.7c0.4-0.1,0.8,0.1,0.9,0.6
						c0.1,0.4-0.2,0.8-0.6,0.9L105,366C105,366,104.9,366,104.8,366L104.8,366z"/>
					<path class="st7" d="M110.8,370.3c-0.3,0-0.7-0.2-0.8-0.6c-0.1-0.4,0.2-0.8,0.6-0.9l2.9-0.7c0.4-0.1,0.8,0.1,0.9,0.6
						c0.1,0.4-0.2,0.8-0.6,0.9l-2.9,0.7C111,370.3,110.9,370.3,110.8,370.3L110.8,370.3z"/>
					<path class="st7" d="M113.8,372c-0.3,0-0.7-0.2-0.8-0.6c-0.1-0.4,0.2-0.8,0.6-0.9l2.9-0.7c0.4-0.1,0.8,0.1,0.9,0.6
						c0.1,0.4-0.2,0.8-0.6,0.9L114,372C113.9,372,113.8,372,113.8,372L113.8,372z"/>
					<path class="st7" d="M117,373.5c-0.3,0-0.7-0.2-0.8-0.6c-0.1-0.4,0.2-0.8,0.6-0.9l2.9-0.7c0.4-0.1,0.8,0.1,0.9,0.6
						c0.1,0.4-0.2,0.8-0.6,0.9l-2.9,0.7C117.1,373.5,117,373.5,117,373.5z"/>
					<path class="st7" d="M120.4,374.8c-0.3,0-0.7-0.2-0.8-0.6c-0.1-0.4,0.2-0.8,0.6-0.9l2.9-0.7c0.4-0.1,0.8,0.1,0.9,0.6
						c0.1,0.4-0.2,0.8-0.6,0.9l-2.9,0.7C120.6,374.8,120.5,374.8,120.4,374.8L120.4,374.8z"/>
				</g>
				<path class="st3" d="M65.6,218.1c0,0,6.2,63.3,8.5,78.7c2.8,19,12.5,59.9,12.5,59.9s9.1,0.1,15.7-1.5l-4.9-149.2L65.6,218.1
					L65.6,218.1z"/>
				<path class="st4" d="M87.9,351.2c-0.5,0-0.9-0.3-1-0.8c0-0.2-4.2-21.2-7.1-34.9c-2.9-13.7-5.8-37-5.9-37.3l-5.4-55.7
					c-0.1-0.6,0.3-1,0.9-1.1s1,0.4,1.1,0.9l5.4,55.7c0,0.2,2.9,23.5,5.8,37.1c2.9,13.6,7.1,34.7,7.1,34.9c0.1,0.5-0.2,1.1-0.8,1.2
					C88,351.2,88,351.2,87.9,351.2L87.9,351.2z"/>
				<path class="st4" d="M85.6,351.4c-0.3,0-0.7-0.3-0.7-0.6c0-0.4,0.3-0.7,0.6-0.7l15.9-0.9c0.4,0,0.7,0.3,0.7,0.6
					s-0.3,0.7-0.6,0.7L85.6,351.4C85.7,351.4,85.7,351.4,85.6,351.4z"/>
			</g>
			<g>
				<path class="st4" d="M61.8,188c0,0.2,0,0.4,0,0.6c-0.2,5.4-0.5,13.1-0.7,21c0,0.4,0,0.9,0,1.3c0,2.5-0.1,5-0.1,7.4
					c0,0.3,0.3,0.6,0.6,0.6c0.2,0,0.2,0,0,0c0.3,0,0.6-0.3,0.6-0.6c0-2.4,0-4.8,0.1-7.2c0-0.4,0-0.9,0-1.3
					c0.2-7.9,0.4-15.6,0.7-21.1c0-0.2,0-0.5,0-0.7L61.8,188L61.8,188z"/>
				<path class="st4" d="M66.9,188c0,0.3,0,0.7-0.1,1c-0.3,7.1-0.8,17.1-1.2,19.5c-0.1,0.6-0.3,0.9-0.7,1.1
					c-0.7,0.4-1.7,0.3-2.7,0.2c-0.4-0.1-0.8-0.2-1.2-0.3c-0.7-0.2-1.4-0.4-1.8-0.6c-0.3-0.1-0.7,0-0.8,0.3c-0.1,0.3,0,0.7,0.3,0.8
					c0.2,0.1,1.1,0.5,2.2,0.8c0.4,0.1,0.8,0.2,1.3,0.3c0.4,0.1,0.8,0.1,1.2,0.1c0.8,0,1.5-0.1,2.1-0.4c0.8-0.4,1.2-1.1,1.3-2.1
					c0.3-2.4,0.9-12.5,1.2-19.6c0-0.4,0-0.7,0.1-1.1L66.9,188L66.9,188z"/>
			</g>
		</g>
		<g>
			<g>
				<path class="st8" d="M121.7,79.6c-0.3,1.7-1.1,3.3-2.2,4.7c-6,7-15.8,13.9-29.1,20.6c-9.5,4.8-17.4,7.8-17.7,7.9
					c-5.1,1.9-10.8-0.7-12.8-5.8c-1.9-5.1,0.7-10.8,5.8-12.8l0,0c7.8-2.9,29.9-12.7,38.7-22.9c3.6-4.2,9.8-4.6,14-1
					C121.2,72.7,122.3,76.3,121.7,79.6z"/>
				<g>
					<path class="st8" d="M121.6,80.3c-0.2,0.6-0.5,1.1-0.8,1.7c-2.4-1.9-4.8-3.8-7.2-5.7c-2.7-2.2-5.6-4.2-8.2-6.6c0,0,0,0,0,0
						c0.2-0.9,0.4-1.8,0.6-2.8c0.4-2,0.7-4,0.9-6.2c0.2-2.1,0.4-4.3,0.6-6.5c0.3-4.4,0.5-8.8,0.6-13.2c0.1-2.2,0.1-4.5,0.1-6.7V31
						l0-3.3v-0.1c-0.1-4.3,3.4-7.8,7.6-7.8c4.1,0,7.4,3.1,7.8,7.1l0.2,1.8l0.1,1.8l0.2,3.5c0.2,2.3,0.3,4.7,0.4,7
						c0.2,4.7,0.3,9.3,0.3,14.1c0,2.4-0.1,4.8-0.2,7.2c-0.1,2.4-0.3,4.9-0.6,7.4c-0.2,1.3-0.3,2.6-0.6,3.9c-0.2,1.4-0.5,2.8-1,4.3
						C122.3,78.6,122,79.4,121.6,80.3L121.6,80.3z"/>
					<g>
						<path class="st2" d="M109.1,31.1c0,0,6.3,4.9,11.5,1.9c4.2-2.4,4.3-8.6,4.2-11c0-0.6-0.1-0.9-0.1-0.9s0.3-0.2,0.7-0.6
							c0.9-0.8,2.3-2.5,1.9-4.2c-0.6-2.4-4.8-0.4-4.8-0.4s0.3-3-1.1-3.7c-1.4-0.7-3.8,1.2-3.8,1.2s2.4-12.4,0.3-13
							c-3.1-0.9-4.9,12.2-5,12.5c0-0.3-0.4-14-2.7-13c-1.9,0.9-2.3,12.4-2.3,15.5c0,0.5,0,0.8,0,0.8s-0.2,0-0.4,0.1
							c-1.3,0.2-5.1,1.1-5.4,3.8C101.7,23.5,109.1,31.1,109.1,31.1L109.1,31.1z"/>
						<path class="st9" d="M114.4,20.8c0.1,0.3,0.4,0.6,0.9,0.7c1.2,0.2,2.7-0.6,3.8-1.5c-0.3,1.1-0.4,2.3-0.1,3
							c0.2,0.5,0.6,0.8,1.1,0.9c0.3,0.1,0.8,0,1.2-0.1c1.2-0.4,2.5-1.2,3.4-1.8c0-0.5-0.1-0.9-0.1-0.9s0.3-0.2,0.7-0.6
							c-0.1,0-0.2,0-0.2,0.1c-1.4,1-3.9,2.6-4.8,2.4c-0.1,0-0.3-0.1-0.4-0.4c-0.4-0.9,0-2.8,0.8-4.1c0.1-0.2,0.1-0.5-0.1-0.6
							c-0.2-0.1-0.4-0.1-0.6,0c-0.8,0.8-3.2,2.8-4.6,2.5c-0.2,0-0.2-0.1-0.3-0.2c-0.2-0.4,0.1-1.3,0.6-2.1c0-0.1,0.1-0.2,0.1-0.3
							c0.2-0.4,0.4-0.8,0.7-1.1c0.1-0.2,0.1-0.5-0.1-0.6c0,0,0,0,0,0c0,0-0.1,0-0.1,0c-0.2-0.1-0.4,0-0.6,0.2
							c-0.1,0.2-0.5,0.7-0.8,1.4l0,0c-0.3,0.5-0.5,1.2-0.7,1.7C114.3,20,114.3,20.5,114.4,20.8L114.4,20.8z"/>
						<path class="st9" d="M105.9,23.1c0.1,0,1.9-0.1,3.6-0.6c0.9-0.3,1.8-0.7,2.4-1.4c0.4-0.5,0.7-1.1,0.6-1.8
							c-0.3-2.4-2.9-3.4-4.5-3.8c0,0.5,0,0.8,0,0.8s-0.2,0-0.4,0.1c1.3,0.3,3.8,1.1,4,3.1c0.1,0.4-0.1,0.8-0.3,1.1
							c-1.1,1.2-4.2,1.6-5.3,1.6c-0.2,0-0.4,0.2-0.4,0.5C105.4,22.9,105.6,23.1,105.9,23.1L105.9,23.1z"/>
						<path class="st9" d="M116.8,30.5c0.2,0,0.3-0.2,0.3-0.3c0.1-0.2-0.1-0.5-0.3-0.5c-1.3-0.3-2.3-1-2.9-2c-1.4-2.7,0-6.8,0.1-6.9
							c0.1-0.2,0-0.5-0.3-0.6s-0.5,0-0.6,0.3c-0.1,0.2-1.6,4.6,0,7.6c0.7,1.3,1.9,2.1,3.5,2.5C116.7,30.5,116.7,30.5,116.8,30.5
							L116.8,30.5z"/>
					</g>
					<path class="st10" d="M105.5,70.1c0,0.1,0,0.1,0.1,0.2c1.3,1.9,1.9,5.7,1.9,5.7c0.1,0.3,0.3,0.5,0.6,0.4
						c0.3-0.1,0.5-0.3,0.4-0.6c0-0.2-0.7-4.1-2.1-6.2c-0.2-0.2-0.5-0.3-0.8-0.1C105.5,69.6,105.4,69.8,105.5,70.1z"/>
					<path class="st10" d="M106,70.4c0,0,0.1,0.1,0.1,0.1c1.9,1.2,3.9,4.6,4,4.6c0.2,0.2,0.5,0.3,0.7,0.2s0.3-0.5,0.2-0.7
						c-0.1-0.1-2.2-3.6-4.3-4.9c-0.2-0.2-0.6-0.1-0.7,0.2C105.9,69.9,105.9,70.2,106,70.4L106,70.4z"/>
				</g>
			</g>
			<path class="st8" d="M25.2,136.4c0.1,1.2,0.3,2.8,0.4,4.6c0,0.6,0.1,1.2,0.1,1.9c0.3,5.5,0.6,12.8,1.1,20.3c0,0.7,0.1,1.4,0.1,2
				c1.2,16.2-3.8,34.8,3.1,36c42.4,7.3,66.8,1.2,68.3-8c0.4-2.7-4.3-27.5-6.3-48.2c-0.1-0.7-0.5-4.5-0.6-5.2
				c-0.6-5.6-1.2-10.9-1.6-13.6c-2.9-18.9-1.6-23.9-3.5-29.6S64.7,85.2,64.7,85.2l-20.6,0.9c0,0-8.3,4.3-16.6,13
				C19.2,107.7,23.7,123.3,25.2,136.4L25.2,136.4z"/>
			<path class="st11" d="M47.8,133.2c9.8,0,18-3.9,23.2-7.2c6.1-3.9,9.5-7.8,9.7-8c0.2-0.2,0.2-0.6-0.1-0.9s-0.6-0.2-0.9,0.1
				c0,0-3.5,4-9.4,7.8c-5.4,3.5-14.1,7.5-24.4,7c-0.3,0-0.6,0.2-0.6,0.6s0.2,0.6,0.6,0.6C46.5,133.2,47.1,133.2,47.8,133.2
				L47.8,133.2z"/>
			<path class="st11" d="M44,97.4c0-0.4,0.4-0.8,0.8-0.7c10.4,2.2,18.3-1.6,23.1-5.2c0.3-0.2,0.7-0.2,1,0.1c0,0,0,0,0,0
				c0.2,0.3,0.2,0.7-0.1,1c-0.6,0.5-1.3,0.9-2,1.4c-3.6,2.3-9,4.7-15.9,4.7c-2,0-4.1-0.2-6.3-0.7C44.2,98,44,97.7,44,97.4L44,97.4z"
				/>
			<path class="st11" d="M45.5,182.1c9.4,0,19-4.3,28-12.6c8.6-7.9,13.7-16.8,13.8-16.9c0.2-0.3,0.1-0.8-0.2-0.9
				c-0.3-0.2-0.8-0.1-0.9,0.3c-0.1,0.1-5.1,8.8-13.5,16.6c-7.7,7.1-19.9,14.8-34.2,11.3c-0.4-0.1-0.7,0.1-0.8,0.5s0.1,0.7,0.5,0.8
				C40.5,181.8,43,182.1,45.5,182.1L45.5,182.1z"/>
			<path class="st11" d="M51.5,168.5c0,0,0.1,0,0.2,0c11.4-2.6,20.4-17.1,20.7-17.7c0.2-0.3,0.1-0.8-0.2-0.9s-0.8-0.1-0.9,0.2
				c-0.1,0.1-9,14.7-19.9,17.1c-0.4,0.1-0.6,0.4-0.5,0.8C50.9,168.3,51.2,168.5,51.5,168.5L51.5,168.5z"/>
		</g>
		<g>
			<path class="st1" d="M31,94.9c0,0,11.3,6.8,14.2,21.6s-7,35.4-18.7,41.4c0,0-1.9,4.9,0.7,10.8c0,0,25.2-8,27.1-40.2
				c1.9-32.2-16.2-37-16.2-37C35.8,90.8,32.3,93,31,94.9L31,94.9z"/>
			<path class="st0" d="M45.3,111.8c1.6-0.7,4.2-1.7,6.9-1.9c1.2-0.1,2.2,0.8,2.3,2c0.3,3,0.8,8.8,0.6,12.7c-0.1,1.1-0.9,2-2,2.1
				l-6.1,0.5c-1.3,0.1-2.4-0.9-2.4-2.3c0.1-2.7,0.1-7.1-0.6-10.5C43.9,113.2,44.4,112.2,45.3,111.8L45.3,111.8z"/>
		</g>
		<g>
			<path class="st8" d="M49.2,153.4c-0.3,0.2-6.4,4.6-13.5,8.6c-4.4,2.5-8.4,4.3-11.8,5.3c-2.5,0.8-4.8,1.2-6.9,1.3
				c-0.3,0-0.5,0-0.8,0c-1.6,0-3.1-0.2-4.6-0.6c-1.3-0.4-2.4-0.9-3.5-1.6c-3-1.9-5.1-4.7-6-8.3c-0.5-1.8-0.6-3.7-0.5-5.8
				c0.1-0.9,0.2-1.9,0.4-2.9c0.7-3.9,2.5-8.9,5.5-15.2c2.2-4.6,5-10,8.4-16c5.7-10.1,11.1-18.5,11.3-18.9c0.5-0.7,1.4-1.9,2.5-2.3
				c4.6,5.3,8.4,11.1,11.5,17.4c-2.1,3.3-5,8.3-8.1,13.7c-4.6,8.1-7.3,13.7-9,17.6c1.2-0.6,2.6-1.4,4.1-2.3c5.1-3,9.3-6,9.3-6.1
				c4.4-3.2,10.7-2.2,13.9,2.2C54.6,144,53.6,150.2,49.2,153.4L49.2,153.4z"/>
			<path class="st11" d="M11.6,168c-1.3-0.4-2.4-0.9-3.5-1.6c-3-1.9-5.1-4.7-6-8.3c-0.5-1.8-0.6-3.7-0.5-5.8
				C5.5,154.4,13.7,159.5,11.6,168L11.6,168z"/>
			<path class="st11" d="M9.7,155c-0.1,0-0.3-0.1-0.4-0.2c-0.2-0.2-0.2-0.6,0-0.8c4.6-4.5,13.7-8.9,14.1-9c0.3-0.1,0.6,0,0.7,0.3
				c0.1,0.3,0,0.6-0.3,0.7c-0.1,0-9.3,4.4-13.8,8.8C10,155,9.9,155,9.7,155L9.7,155z"/>
			<path class="st11" d="M22.1,146.9c-0.1,0-0.1,0-0.2,0c-2.2-0.7-6-0.2-6.1-0.2c-0.3,0-0.6-0.2-0.6-0.5c0-0.3,0.2-0.6,0.5-0.6
				c0.2,0,4.1-0.6,6.5,0.2c0.3,0.1,0.4,0.4,0.3,0.7C22.6,146.7,22.4,146.8,22.1,146.9L22.1,146.9z"/>
			<g>
				<path class="st11" d="M31.3,132.9c-0.1,0-0.2,0-0.3-0.1c-0.3-0.1-0.4-0.5-0.2-0.7L42.2,112c0.2-0.3,0.5-0.3,0.7-0.2
					c0.3,0.2,0.3,0.5,0.2,0.7l-11.3,20.1C31.7,132.8,31.5,132.9,31.3,132.9z"/>
				<path class="st11" d="M42.6,118.7h-3.3c-0.3,0-0.5-0.2-0.5-0.5s0.2-0.5,0.5-0.5h3.3c0.3,0,0.5,0.2,0.5,0.5
					S42.9,118.7,42.6,118.7z"/>
			</g>
			<path class="st2" d="M35.8,141.4c0,0,6-8.4,8.5-9.1c2.5-0.8,3.6,0,3.6,0l-0.2,2.3c0,0,8.8-2.8,10.1-2s0.1,2.9,0.1,2.9
				s0.3-0.4,0.8,1s-1.1,2.8-1.1,2.8s0.5,0.3,0.8,1.6c0.2,1.3-1.2,2.9-1.2,2.9s0.7,0.9,0,2.8s-7.8,6.1-13,6.4
				C39,153.3,33.9,147.4,35.8,141.4L35.8,141.4z"/>
		</g>
		<g>
			<path class="st1" d="M61,75.9c0,0,5.8,3.8,9.1-2c0,0,7.5-0.4,6.1-7.3c0,0,5.1-2.8,0.1-11.6c0,0,5.1-3.3,0.4-11
				c0,0,2.7-5.7-0.4-10.8C72.4,27,66,29.2,66,29.2s-0.8-4.4-7.7-5.3c-6.6-0.8-6.7,3.5-6.7,3.5s-5.8-3.8-10.5-1.3
				c-4.8,2.5-5.1,6.1-5.1,6.1s-5.4-0.8-8.5,4s0,9.9,0,9.9s-5,1-4.2,6.7s4.2,6.2,4.2,6.2s-4.2,8,4.4,10.5c0,0,3.9,9.2,12.9,4.2
				C52.2,69.7,61,75.9,61,75.9L61,75.9z"/>
			<path class="st1" d="M52.6,76.8c0,0-11.8,0.7-17.8-9.9C29.1,56.8,30,50.6,31.7,44C33,39,39,31.2,50.1,30.7
				c11.2-0.5,20.5,3,23.8,11.5C80.2,58,71.9,81.3,52.6,76.8L52.6,76.8z"/>
			<g>
				<path class="st9" d="M71.5,57.9c0,0,2.9-3.8,4.9-0.2c1.9,3.6,0.9,11.1-3.9,10.1L71.5,57.9z"/>
				<g>
					<path class="st2" d="M64.5,79.1l0.8,10c0,0-4.4,9.7-20.8-0.2c0.8-3.9,1.1-10.2,0.4-14.3c0,0,1.2,0.4,3.1,1.4
						c0.4,0.2,0.8,0.3,1.3,0.5C53.4,77.9,59.5,79.7,64.5,79.1L64.5,79.1z"/>
					<path class="st1" d="M64.5,79.1l0.4,4.7C60.6,83,52.7,81,48.1,75.9c0.4,0.2,0.8,0.3,1.3,0.5C53.4,77.9,59.5,79.7,64.5,79.1z"/>
				</g>
				<path class="st2" d="M74.7,59.7c0,1,0.1,2,0.1,3c0.2,7-0.1,10.9-1.7,12.7c-8.1,9.2-27.5-0.5-28.1-0.8h0
					c-0.2-0.8-0.4-1.6-0.6-2.3c-1.5-6.5-1.8-12.6-1.4-18.4c-0.6-6.1,2.8-11.9,8.4-14.2c5.8-2.4,11.3,0,14.5,0.8
					c4.9,1.3,8.2,7.4,8.6,16.3C74.6,57.8,74.6,58.8,74.7,59.7L74.7,59.7z"/>
				<path class="st9" d="M68.2,70c0.2-0.1,0.3-0.2,0.3-0.2c0.2-0.1,0.3-0.4,0.2-0.7c-0.1-0.2-0.4-0.3-0.7-0.2
					c-0.1,0-1.6,0.9-3.2-0.1c-0.2-0.2-0.6-0.1-0.7,0.2c-0.1,0.2,0,0.5,0.2,0.7C65.9,70.7,67.5,70.2,68.2,70L68.2,70z"/>
				<path class="st1" d="M60.6,49.2c0,0,1.8,0.1,1.2,1.7c-0.5,1.7-4.2,0-6.6,3.1C55.2,54,54,50.2,60.6,49.2L60.6,49.2z"/>
				<path class="st9" d="M60.5,61.8c0,0.8-1.6,1.6-3.7,1.7C54.7,63.6,53,63,53,62.1c0-0.8,1.6-1.6,3.7-1.7
					C58.8,60.4,60.5,61,60.5,61.8z"/>
				<g class="st12">
					<path class="st9" d="M74.7,59.7c0,1,0.1,2,0.1,3c-1.9,0-3.4-0.6-3.5-1.3C71.3,60.6,72.7,59.9,74.7,59.7L74.7,59.7z"/>
				</g>
				<g>
					<path class="st1" d="M60.1,57.1c0,1.1-0.4,2.1-1.1,2.1c-0.6,0-1.2-0.9-1.2-2c0-1.1,0.4-2.1,1.1-2.1S60.1,56,60.1,57.1z"/>
					<path class="st1" d="M71.3,56.6c0.1,1.1-0.4,2.1-1.1,2.1s-1.2-0.9-1.2-2c-0.1-1.1,0.4-2.1,1.1-2.1S71.3,55.5,71.3,56.6z"/>
					<path class="st1" d="M67.2,67.8c1.3-0.1,2.7-0.5,3.9-1.8c0.2-0.2,0.2-0.5,0-0.7c-0.2-0.2-0.5-0.2-0.7,0c-3.3,3.5-8,0-8.2-0.1
						c-0.2-0.2-0.5-0.1-0.7,0.1c-0.2,0.2-0.1,0.5,0.1,0.7C61.8,66,64.4,67.9,67.2,67.8z"/>
					<path class="st1" d="M67.4,61.3c0.5,0,0.9-0.1,0.9-0.1c0.1,0,0.2-0.1,0.3-0.2c0.1-0.1,0.1-0.2,0-0.4l-1.9-4.9
						c-0.1-0.2-0.4-0.4-0.6-0.3c-0.2,0.1-0.4,0.4-0.3,0.6l1.7,4.3c-0.5,0-1.2,0-1.9-0.3c-0.2-0.1-0.5,0-0.6,0.2
						c-0.1,0.2,0,0.5,0.2,0.6C66,61.3,66.8,61.3,67.4,61.3L67.4,61.3z"/>
				</g>
				<path class="st1" d="M48.4,69.8c0,0.1-1.4,3.6-3.5,4.8l0,0l0,0c-0.2-0.8-0.4-1.6-0.6-2.3C44.5,72.2,46.6,71.7,48.4,69.8
					L48.4,69.8z"/>
				<path class="st2" d="M46,62c0,0-4.8-5.9-7.9-1c-2.6,4,3,14.1,8.3,10.3L46,62L46,62z"/>
				<path class="st1" d="M45.7,69.6C45.7,69.6,45.8,69.6,45.7,69.6c0.3,0,0.5-0.3,0.4-0.5c-0.8-5.1-5.2-6.8-5.4-6.8
					c-0.2-0.1-0.5,0-0.6,0.3c-0.1,0.2,0,0.5,0.3,0.6l0,0c0.2,0.1,4.1,1.5,4.8,6.1C45.3,69.4,45.5,69.6,45.7,69.6L45.7,69.6z"/>
				<path class="st1" d="M41.3,66.9c0.1,0,0.2,0,0.3-0.1c0.4-0.3,1.6-1.2,2.4-1c0.2,0.1,0.5-0.1,0.5-0.4s-0.1-0.5-0.4-0.6
					c-1.4-0.3-3,1.1-3.2,1.2c-0.2,0.2-0.2,0.5,0,0.7C41,66.9,41.1,67,41.3,66.9L41.3,66.9z"/>
			</g>
			<path class="st1" d="M41.8,47.8c0,0,6.4,5.4,9,3.9c2.5-1.5-1.9-6.5-1.9-6.5s9.4,4.6,12.8,2.8c3.5-1.8-3-5.8-3-5.8
				s7.3,5.9,11.2,5.4s-0.2-5.4-0.2-5.4s3.9,6.9,6.3,6.2c2.4-0.7-1.3-10.7-9.4-13.8S38.2,33.1,41.8,47.8L41.8,47.8z"/>
			<path class="st1" d="M47.3,49.7c0,0,2.6,12.8-0.7,13c-3.2,0.2-6.8-4.7-4.8-14.9L47.3,49.7z"/>
			<path class="st1" d="M68.6,48.8c0,0-1.8,0.2-1.1,1.8s4.2-0.3,6.8,2.5C74.3,53.2,75.2,49.3,68.6,48.8z"/>
		</g>
	</g>
</g>
</svg>
