<?xml version="1.0" encoding="utf-8"?>
<!-- Generator: Adobe Illustrator 27.0.0, SVG Export Plug-In . SVG Version: 6.00 Build 0)  -->
<svg version="1.1" id="Camada_2_00000136410504768215097430000016290307310121051828_"
	 xmlns="http://www.w3.org/2000/svg" xmlns:xlink="http://www.w3.org/1999/xlink" x="0px" y="0px" viewBox="0 0 260 364.1"
	 style="enable-background:new 0 0 260 364.1;" xml:space="preserve">
<style type="text/css">
	.st0{fill:#FF9568;}
	.st1{fill:#E0693E;}
	.st2{fill:#704324;}
	.st3{fill:#5B413C;}
	.st4{fill:#36251F;}
	.st5{fill:#0B1F60;}
	.st6{fill:#0025C1;}
	.st7{fill:#F4ECE1;}
	.st8{fill:#0642BC;}
	.st9{fill:#104151;}
	.st10{fill:#281C15;}
	.st11{fill:#1E1B0C;}
	.st12{fill:#141207;}
	.st13{fill:#FE9873;}
	.st14{fill:#FF9918;}
	.st15{opacity:0.8;}
	.st16{fill:#00787C;}
</style>
<g id="OBJECTS">
	<g>
		<g>
			<path class="st0" d="M80.9,83.4c0,0.1,0,0.1,0,0.2l0,0.1l0.5,2.8l0.4,2.9l0.9,5.8c0.6,3.9,1.1,7.7,1.6,11.6
				c0.2,1.5,0.4,2.9,0.6,4.4c0.2,1.7,0.4,3.4,0.6,5c0.1,0.7,0.2,1.4,0.2,2.1c0.4,3.8,0.8,7.7,1,11.4c0.1,1.9,0.2,3.7,0.3,5.5
				c0,0.4,0,0.9,0,1.3v0.6v0.6v0.6c0,0.2,0,0.4,0,0.6c0,0.4,0,0.8-0.1,1.2c-0.2,3.3-0.8,6.7-1.6,10.2c-0.8,3.5-1.8,6.9-3,10.4
				c-0.6,1.7-1.2,3.4-1.9,5.1c-0.3,0.9-0.7,1.7-1,2.5l-0.5,1.2l-0.5,1.1l-0.2,0.3c-2.1,4.7,0,10.2,4.7,12.3c4.6,2.1,10,0.1,12.2-4.4
				l0.4-0.8l0.4-0.8l0.7-1.5c0.4-1,0.9-1.9,1.3-2.9c0.8-1.9,1.6-3.9,2.4-5.9c1.5-4,2.8-8,3.9-12.2c0.5-2.1,1-4.2,1.4-6.4
				s0.7-4.4,0.9-6.7c0.1-0.6,0.1-1.2,0.1-1.7c0-0.3,0-0.6,0.1-0.9l0-0.9l0-0.9c0-0.3,0-0.6,0-0.8c0-0.6,0-1.1,0-1.6
				c0-2.2-0.1-4.2-0.2-6.3c-0.2-4.1-0.5-8.2-0.8-12.2c-0.1-1-0.2-1.9-0.2-2.9c-0.1-0.9-0.2-1.8-0.3-2.8c-0.2-2.1-0.4-4.3-0.7-6.4
				c-0.4-4-0.9-8-1.4-11.9l-0.8-5.9l-0.4-3l-0.4-3c-0.8-5.7-6.1-9.7-11.8-8.9S80.1,77.6,80.9,83.4L80.9,83.4z"/>
			<path class="st1" d="M84.8,111.2c0.2,1.7,0.4,3.4,0.6,5l20-2.7c-0.1-0.9-0.2-1.8-0.3-2.8C105.2,110.7,84.8,111.2,84.8,111.2z"/>
			<path class="st2" d="M80.1,84.6l2.4,29l25.5-1.8c0,0-1.1-30.4-7.7-37.1c-3.7-3.7-7.2-4.9-11.8-3.3C83.1,73.3,79.6,78.8,80.1,84.6
				L80.1,84.6z"/>
		</g>
		<g>
			<path class="st3" d="M47.1,54c0,0-9.2-5.6-16.6-2.6S18,65.8,18,65.8l19.6,4.2C37.6,69.9,47.1,54,47.1,54z"/>
			<path class="st3" d="M25.3,81.5c0,0-13.3-16-20.9-2.3c-8.2,14.7-1.7,26.2-1.7,26.2l13.1-7.9C15.8,97.5,25.3,81.5,25.3,81.5z"/>
			<path class="st4" d="M66,56c0,0-20.5-18.1-46.4,8.1c-25.9,26.2-23.1,65.6-8.8,78.7c14.3,13.1,36,5.9,36,5.9L66,56L66,56z"/>
		</g>
		<g>
			<g>
				<path class="st0" d="M92.7,342.5H79.1c-3.4-14.3-6.4-33.5-8.8-47C67,277.7,64.1,261,65,247c0.2-3.4,0.7-6.6,1.4-9.6
					c0.4-1.7,0.9-3.3,1.4-4.8l23.9-1.4l0.1,6.7l0.1,5.1L92.7,342.5L92.7,342.5z"/>
				<path class="st1" d="M91.8,243L65,247c0.2-3.4,0.7-6.6,1.4-9.6l25.4,0.4C91.8,237.9,91.8,243,91.8,243z"/>
				<path class="st5" d="M123.7,363.9H74.9c-0.4-0.7-0.6-1.6-0.6-2.7c-0.3-4.1,1-10.7,1.7-14.9c0.1-0.5,0.2-0.9,0.2-1.4
					c0.1-0.7,0.1-1.3,0.1-1.7c0-3.4,3-2.8,3-2.8c4.9,4.8,10.5-2.4,13.8,0c0,0,1.4,1,5.3,4.5c3.9,3.5,10.5,5.8,16.1,8.1
					c7.2,3,9.3,6,9.7,8.1C124.4,362.8,123.7,363.8,123.7,363.9L123.7,363.9z"/>
				<path class="st6" d="M123.7,363.9H74.9c-0.4-0.7-0.6-1.6-0.6-2.7h49.8C124.4,362.8,123.7,363.9,123.7,363.9z"/>
				<path class="st6" d="M79.9,363.9h-1.4c1.4-1.6,2.8-4.2,2.6-7.8c-0.2-4.8-3.1-8.1-5.1-9.8c0.1-0.5,0.2-0.9,0.2-1.4
					c2.2,1.6,5.8,5.3,6.1,11C82.4,359.4,81.3,362,79.9,363.9L79.9,363.9z"/>
				<path class="st7" d="M97.3,347.4c-0.4,0-0.7-0.2-0.8-0.6c-0.1-0.4,0.2-0.9,0.6-1l3.1-0.8c0.4-0.1,0.9,0.2,1,0.6
					c0.1,0.4-0.2,0.9-0.6,1l-3.1,0.8C97.5,347.4,97.4,347.4,97.3,347.4z"/>
				<path class="st7" d="M94.4,345.1c-0.4,0-0.7-0.2-0.8-0.6c-0.1-0.4,0.2-0.9,0.6-1l3.1-0.8c0.4-0.1,0.9,0.2,1,0.6
					c0.1,0.4-0.2,0.9-0.6,1l-3.1,0.8C94.5,345.1,94.4,345.1,94.4,345.1z"/>
				<path class="st7" d="M100.6,349.5c-0.4,0-0.7-0.2-0.8-0.6c-0.1-0.4,0.2-0.9,0.6-1l3.1-0.8c0.4-0.1,0.9,0.2,1,0.6
					c0.1,0.4-0.2,0.9-0.6,1l-3.1,0.8C100.7,349.5,100.6,349.5,100.6,349.5z"/>
				<path class="st7" d="M103.6,351.2c-0.4,0-0.7-0.2-0.8-0.6c-0.1-0.4,0.2-0.9,0.6-1l3.1-0.8c0.4-0.1,0.9,0.2,1,0.6
					c0.1,0.4-0.2,0.9-0.6,1l-3.1,0.8C103.8,351.2,103.7,351.2,103.6,351.2z"/>
				<path class="st7" d="M106.9,352.8c-0.4,0-0.7-0.2-0.8-0.6c-0.1-0.4,0.2-0.9,0.6-1l3.1-0.8c0.4-0.1,0.9,0.2,1,0.6
					c0.1,0.4-0.2,0.9-0.6,1l-3.1,0.8C107.1,352.8,107,352.8,106.9,352.8z"/>
				<path class="st7" d="M110.6,354.2c-0.4,0-0.7-0.2-0.8-0.6c-0.1-0.4,0.2-0.9,0.6-1l3.1-0.8c0.4-0.1,0.9,0.2,1,0.6
					c0.1,0.4-0.2,0.9-0.6,1l-3.1,0.8C110.7,354.2,110.6,354.2,110.6,354.2z"/>
			</g>
			<path class="st8" d="M95.2,234.3l-0.1,5.3h-32c0-0.4,0-0.6,0-0.6c-0.3-11.3-3.9-39.9-5.9-55.6c-0.2-1.3-0.3-2.5-0.5-3.6
				c-0.6-4.3-0.9-7-0.9-7l35.1-4.2L95.2,234.3L95.2,234.3z"/>
			<polyline class="st9" points="96.7,240.8 96.1,233.9 62.4,233.9 63.1,240.8 			"/>
			<path class="st9" d="M70.1,238.1c0,0,0,0.6-0.1,1.5h-1.5c0.1-0.8,0.1-1.3,0.1-1.5c-1.3-11.2-6.6-54.2-6.7-54.7
				c0-0.4,0.2-0.8,0.7-0.8s0.8,0.2,0.8,0.7c0,0.4,5.4,43.7,6.7,54.8C70.1,238,70.1,238,70.1,238.1z"/>
			<path class="st8" d="M25.4,153.3c0,0-3.2,17.4-0.7,28c0,0,49.2,4.4,67-2.3c0,0-0.2-17.3-2.2-25.7
				C89.5,153.2,25.4,153.3,25.4,153.3z"/>
			<g>
				<g>
					<g>
						<path class="st0" d="M50.1,238.9c0,1.6-0.1,3.3-0.2,4.9c-0.8,15.7-3.7,31.5-7.2,50.6c-2.5,13.5-4.6,31.3-8,45.6l-14.4,0.5
							l4.8-93.1l0.5-9l0.4-7.4h24.1C50.1,233.8,50.1,236.4,50.1,238.9L50.1,238.9z"/>
						<path class="st1" d="M50.1,238.9c0,1.6-0.1,3.3-0.2,4.9l-24.8,3.7l0.5-9L50.1,238.9L50.1,238.9z"/>
						<path class="st5" d="M39.3,360.4c0,0.1,0,0.2,0,0.4c0,0.6,0,1.1-0.1,1.5c-0.1,1-0.1,1.5-0.1,1.5H7.5c0,0-0.2-1.2,0-3
							c0.2-3.2,1.3-8.3,5.7-11.7c6-4.6,3.7-3.7,4.9-5.8c0.1-0.2,1.2-3.8,1.3-4.1c1-2.2,2-3.2,7.6-3.2c7.5,0,8.2,3.6,9,5.6
							c0.3,0.8,0.8,2.5,1.2,4.5c0.2,0.8,0.4,1.6,0.6,2.5c0.5,2.2,0.9,4.5,1.2,6.3C39.3,356.8,39.3,358.8,39.3,360.4L39.3,360.4z"/>
						<path class="st6" d="M39.3,360.4c0,0.1,0,0.2,0,0.4c0,0.6,0,1.1-0.1,1.5c-1.5-1.1-2.6-2.5-3.3-4.3c-2-5.3,1-11.7,1.2-12l0.1,0
							c0.2,0.8,0.4,1.6,0.6,2.5c-0.7,2.2-1.5,5.8-0.4,8.9C37.8,358.6,38.5,359.6,39.3,360.4L39.3,360.4z"/>
						<path class="st6" d="M39.3,360.8c0,1.8-0.2,3-0.2,3H7.5c0,0-0.2-1.2,0-3H39.3z"/>
					</g>
					<path class="st7" d="M28,345.9c-0.1,0-0.1,0-0.2,0c-4-1-7.3-0.2-7.3-0.1c-0.5,0.1-1-0.1-1.1-0.6c-0.1-0.5,0.1-1,0.6-1.1
						c0.1,0,3.8-1,8.3,0.1c0.5,0.1,0.8,0.6,0.6,1.1C28.8,345.6,28.4,345.9,28,345.9L28,345.9z"/>
					<path class="st7" d="M28.4,342.5c-0.1,0-0.1,0-0.2,0c-4-1-7.3-0.2-7.3-0.1c-0.5,0.1-1-0.1-1.1-0.6c-0.1-0.5,0.1-1,0.6-1.1
						c0.1,0,3.8-1,8.3,0.1c0.5,0.1,0.8,0.6,0.6,1.1C29.2,342.2,28.8,342.5,28.4,342.5L28.4,342.5z"/>
					<path class="st7" d="M26.7,348.7c-0.1,0-0.1,0-0.2,0c-4-1-7.3-0.2-7.3-0.1c-0.5,0.1-1-0.1-1.1-0.6c-0.1-0.5,0.1-1,0.6-1.1
						c0.1,0,3.8-1,8.3,0.1c0.5,0.1,0.8,0.6,0.6,1.1C27.4,348.5,27.1,348.7,26.7,348.7L26.7,348.7z"/>
					<path class="st7" d="M25.1,352c-0.1,0-0.1,0-0.2,0c-4-1-7.3-0.2-7.3-0.1c-0.5,0.1-1-0.1-1.1-0.6c-0.1-0.5,0.1-1,0.6-1.1
						c0.1,0,3.8-1,8.3,0.1c0.5,0.1,0.8,0.6,0.6,1.1C25.8,351.7,25.5,352,25.1,352L25.1,352z"/>
				</g>
				<g>
					<g>
						<path class="st8" d="M57.6,179.9c0,0-0.1,1.3-0.3,3.5c-0.8,9.1-3.1,34.5-5.2,56.2h-30l2-63.7l32.7,4
							C56.8,179.8,57.6,179.9,57.6,179.9z"/>
						<polygon class="st9" points="52.8,240.8 20.7,240.8 21.2,233.9 53.4,233.9 						"/>
						<g>
							<path class="st9" d="M56.7,151.3c0,0.2,0,0.4,0,0.6c-0.2,5.1-0.5,12.2-0.6,19.5c0,0.4,0,0.8,0,1.2c0,2.3-0.1,4.7-0.1,6.9
								c0,0.3,0.3,0.6,0.6,0.6c0.2,0,0.2,0,0,0c0.3,0,0.6-0.3,0.6-0.6c0-2.2,0-4.4,0.1-6.7c0-0.4,0-0.8,0-1.2
								c0.1-7.3,0.4-14.6,0.6-19.6c0-0.2,0-0.5,0-0.7H56.7L56.7,151.3z"/>
							<path class="st9" d="M61.5,151.3c0,0.3,0,0.6,0,1c-0.3,6.6-0.8,15.9-1.1,18.2c-0.1,0.5-0.3,0.8-0.7,1.1
								c-0.6,0.3-1.5,0.3-2.5,0.1c-0.4-0.1-0.8-0.2-1.2-0.3c-0.7-0.2-1.3-0.4-1.6-0.6c-0.3-0.1-0.6,0-0.8,0.3s0,0.6,0.3,0.8
								c0.2,0.1,1,0.4,2.1,0.7c0.4,0.1,0.8,0.2,1.2,0.2c0.4,0.1,0.7,0.1,1.1,0.1c0.7,0,1.4-0.1,2-0.4c0.7-0.4,1.1-1.1,1.2-1.9
								c0.3-2.3,0.8-11.6,1.1-18.3c0-0.4,0-0.7,0-1L61.5,151.3L61.5,151.3z"/>
						</g>
					</g>
					<path class="st9" d="M52.8,182.8c0,0.4-2.2,35.8-3.8,56.8h-1.5c1.6-21,3.8-56.5,3.8-56.9c0-0.4,0.4-0.7,0.8-0.7
						S52.8,182.4,52.8,182.8L52.8,182.8z"/>
				</g>
			</g>
		</g>
		<g>
			<path class="st2" d="M93.9,106.6c-0.2,1.2-0.5,2.6-0.8,4.3c-0.1,0.6-0.2,1.2-0.3,1.8c-0.8,5.2-1.7,12.1-2.8,19.3
				c-0.1,0.6-0.2,1.3-0.3,1.9c-2.5,15.4,2.7,18.4,1.5,23.3c-3.8,15.6-61,10.1-66.6,3.1c-2.6-3.3-0.3-34.6,3.4-54.2
				c0.1-0.7,0.2-1.3,0.4-1.9c1-5.3,1.8-9.7,2-12.3c1.1-12,3.8-24.6,6.1-29.9c2.3-5.3,22.6-7.9,22.6-7.9l21.2,3.5
				c0,0,10.4,4.5,17.6,13.4S96.5,94.2,93.9,106.6L93.9,106.6z"/>
			<path class="st10" d="M28.1,160.8c-0.3,0-0.6-0.2-0.6-0.5c-2.3-20.6,3.6-70.1,3.6-70.6c0-0.3,0.3-0.6,0.7-0.5
				c0.3,0,0.6,0.3,0.5,0.7c-0.1,0.5-5.9,49.9-3.6,70.3C28.8,160.5,28.5,160.8,28.1,160.8C28.2,160.8,28.2,160.8,28.1,160.8
				L28.1,160.8z"/>
			<path class="st10" d="M77.7,152.5c-12.9,0-22.5-3.4-28.6-6.6c-7.7-4-11.6-8.2-11.7-8.4c-0.2-0.2-0.2-0.6,0-0.9s0.6-0.2,0.8,0.1
				c0,0,3.9,4.3,11.4,8.1c7,3.6,18.6,7.5,34.4,6.1c0.3,0,0.6,0.2,0.7,0.6s-0.2,0.6-0.6,0.6C82,152.4,79.8,152.5,77.7,152.5
				L77.7,152.5z"/>
			<path class="st10" d="M42.2,97.1c0,0-0.1,0-0.1,0c-0.3-0.1-0.5-0.4-0.4-0.7c1.8-6.7,6.8-22.2,6.8-22.3c0.1-0.3,0.4-0.5,0.7-0.4
				c0.3,0.1,0.5,0.4,0.4,0.7c0,0.2-5,15.6-6.8,22.3C42.7,97,42.5,97.1,42.2,97.1L42.2,97.1z"/>
			<g>
				<path class="st4" d="M87.4,61.7c0,0,2.4,14.9-7.2,28.2s-38.6,20.5-52,15.7c0,0-2.7,4.3-1.6,9.9c0,0,27,9.4,50.8-9.4
					c24.5-19.3,17.4-38.6,17.4-38.6C93.5,65.2,89.9,61.3,87.4,61.7L87.4,61.7z"/>
				<path class="st3" d="M83.3,86.5c1.7,0.7,4.2,2,6.3,3.8c1.2,1,1.2,2.8,0.2,3.9c-2.2,2.6-6.3,7.1-9.4,9.6
					c-0.9,0.8-2.3,0.7-3.2-0.1l-4.9-4.5c-1.1-1-1-2.6,0.1-3.6c2.2-1.9,5.7-5.2,7.9-8.3C81,86.4,82.2,86.1,83.3,86.5L83.3,86.5z"/>
			</g>
			<path class="st10" d="M52,125.2c0,0,0.1,0,0.2,0c12.1,0.6,25.1-11.6,25.7-12.1c0.3-0.3,0.3-0.7,0-1c-0.3-0.3-0.7-0.3-1,0
				c-0.1,0.1-13.1,12.2-24.6,11.7c-0.4,0-0.7,0.3-0.8,0.7C51.5,124.8,51.7,125.1,52,125.2L52,125.2z"/>
			<path class="st10" d="M72.1,69.7c-8.6-0.8-15.8-11.6-16.2-12c-0.2-0.3-0.1-0.8,0.2-1s0.8-0.1,1,0.2c0.1,0.1,7.1,10.7,15.1,11.4
				l0,0c5.7,0.5,8.4-5.2,8.5-5.4c0.2-0.3,0.6-0.5,0.9-0.3c0.3,0.2,0.5,0.6,0.3,0.9C81.9,63.7,78.8,70.2,72.1,69.7
				C72.1,69.7,72.1,69.7,72.1,69.7L72.1,69.7z"/>
			<path class="st10" d="M91.8,111.7c0,0-0.1,0-0.1,0c-0.3-0.1-0.5-0.4-0.4-0.7c1.8-6.7,6.8-22.2,6.8-22.3c0.1-0.3,0.4-0.5,0.7-0.4
				c0.3,0.1,0.5,0.4,0.4,0.7c-0.1,0.2-5,15.6-6.8,22.3C92.3,111.6,92,111.8,91.8,111.7L91.8,111.7z"/>
			<g>
				<path class="st10" d="M59.6,14.5c0,0-8,4.5-7,7.3c1,2.8,8-2.7,8-2.7S59.6,14.5,59.6,14.5z"/>
				<path class="st4" d="M57.5,19.4c0,0-4.8,3-4.5,6c0.3,2.6,2,1.8,2,1.8s-3.5,2.4-2.6,4.9c0.9,2.6,2.5,2,2.5,2s-3.2,4.5,0,6.9
					c3.2,2.5,6.1-2.7,6.1-2.7l2.4-17.9l-1.2-5.6C60.2,16.4,58.2,17.9,57.5,19.4z"/>
				<g>
					<path class="st0" d="M81.1,53.3l-0.8,5.8c-0.7,0.5-1.4,0.8-2.1,1.2c-10.2,4.8-19.4-4.1-19.4-4.1l1.3-13l18.6,8.1L81.1,53.3
						L81.1,53.3z"/>
					<path class="st4" d="M81.1,53.3l-0.8,5.8c-0.7,0.5-1.4,0.8-2.1,1.2C70.6,55.8,66,46,66,46l12.8,5.2L81.1,53.3L81.1,53.3z"/>
				</g>
				<path class="st1" d="M90.3,32.6c0,0,3.6-3.2,4.8,0.7c1.2,3.9-1.1,11.1-5.6,9.2L90.3,32.6z"/>
				<path class="st0" d="M92.2,43.3c0,0-1.8,11.3-13.5,9.7c-11.6-1.6-18.2-9.3-18.6-9.8l0,0l0.2-2.4l1-12.3l0.5-6.6
					c0,0,0.1-12,11.6-12.6c8.4-0.5,15.9,1.9,19.2,6.7c0.1,0.1,0.2,0.3,0.3,0.5c1,1.7,1.5,3.6,1.5,5.8L93.1,34l-0.3,2.9L92.2,43.3
					L92.2,43.3z"/>
				<path class="st4" d="M76.6,14.4c-1.3-0.1-2.5,0.6-2.9,1.9c-0.3,0.9-1,1.9-2.7,2.6c-3.9,1.8-3.7,5-3.2,7.7s-5.4,6.8-7.7-0.1
					c-2.3-6.9,2.5-20.1,12.1-19.5c9.7,0.7,21.9,5.5,22.4,9.9s-0.7,8.1-0.7,8.1s-1.4-1.5-0.9-4.2c0.5-2.7-1.2-4-4.4-4.9
					C86.6,15.4,80.3,14.8,76.6,14.4L76.6,14.4z"/>
				<path class="st4" d="M82.8,35.3c2.7,0.4,3.9-1.4,4-1.5c0.1-0.1,0.1-0.3,0.1-0.4c-1.3-4.1-2.7-8.4-2.7-8.4
					c-0.1-0.2-0.3-0.4-0.6-0.3c-0.2,0.1-0.4,0.3-0.3,0.6c0,0,1.3,4.1,2.7,8.2c-0.3,0.3-1.2,1.1-2.9,0.9c-0.2,0-0.5,0.1-0.5,0.4
					C82.4,35,82.6,35.2,82.8,35.3z"/>
				<path class="st1" d="M92.8,36.9c-0.3,0-0.6,0-0.9-0.1c-2.1-0.3-3.7-1.2-3.6-2c0.1-0.8,1.9-1.2,4-1c0.3,0,0.6,0.1,0.8,0.2
					C93.1,34,92.8,36.9,92.8,36.9z"/>
				<path class="st1" d="M77.7,33.4c-0.1,0.8-1.9,1.2-4,1s-3.7-1.2-3.6-2c0.1-0.8,1.9-1.2,4-1S77.8,32.6,77.7,33.4z"/>
				<path class="st4" d="M72.8,22.3L72.8,22.3c0.4,1.4,1.9,2.2,3.3,1.8c0.8-0.2,1.8-0.4,2.8-0.5c1.4-0.1,2.4-1.4,2.2-2.8l0,0
					C81.1,20.8,75.7,19.6,72.8,22.3z"/>
				<path class="st4" d="M93.9,25.1L93.9,25.1c-0.8,1.2-2.4,1.6-3.6,0.9c-0.7-0.4-1.6-0.9-2.5-1.2c-1.3-0.5-2-2-1.4-3.3l0,0
					C86.3,21.5,91.8,21.8,93.9,25.1L93.9,25.1z"/>
				<g>
					<path class="st7" d="M76.2,35.3c-0.1,0-0.3-0.1-0.4-0.1c-3.4-1-5.4-4.6-4.4-8.1c0.5-1.7,1.6-3,3.1-3.9c1.5-0.8,3.3-1,4.9-0.5
						c3.4,1,5.4,4.6,4.4,8.1l0,0C82.9,34.1,79.5,36.1,76.2,35.3z M78.8,23.6c-2.8-0.6-5.6,1-6.5,3.8c-0.8,2.9,0.8,5.9,3.7,6.8
						c2.9,0.8,5.9-0.8,6.8-3.7l0,0c0.8-2.9-0.8-5.9-3.7-6.8C79.1,23.7,79,23.7,78.8,23.6z M83.4,30.7L83.4,30.7L83.4,30.7z"/>
					<path class="st7" d="M91.2,36.7c-0.1,0-0.3-0.1-0.4-0.1c-1.7-0.5-3-1.6-3.9-3.1s-1-3.3-0.5-5c1-3.4,4.6-5.4,8.1-4.4
						s5.4,4.6,4.4,8.1c-0.5,1.7-1.6,3-3.1,3.9C94.4,36.8,92.8,37.1,91.2,36.7z M93.9,25c-2.8-0.6-5.6,1-6.5,3.8
						c-0.4,1.4-0.2,2.9,0.4,4.2c0.7,1.3,1.9,2.2,3.3,2.6c2.9,0.8,5.9-0.8,6.8-3.7s-0.8-5.9-3.7-6.8C94.1,25.1,94,25.1,93.9,25z"/>
					<path class="st7" d="M83.5,29.5c-0.1,0-0.2-0.1-0.2-0.1c-0.2-0.2-0.2-0.5,0-0.7c0,0,0.9-0.9,2-0.9c0.6,0,1.2,0.2,1.7,0.8
						c0.2,0.2,0.2,0.5,0,0.7c-0.2,0.2-0.5,0.2-0.7,0c-0.3-0.3-0.6-0.4-0.9-0.4c-0.7,0-1.2,0.6-1.2,0.6
						C83.9,29.5,83.7,29.5,83.5,29.5L83.5,29.5z"/>
					<path class="st7" d="M59.1,28.4c-0.1,0-0.2-0.1-0.3-0.2c-0.2-0.2-0.1-0.5,0.1-0.7c5.4-4.2,12.7-1.3,13-1.2
						c0.3,0.1,0.4,0.4,0.3,0.7c-0.1,0.3-0.4,0.4-0.7,0.3c-0.1,0-7.1-2.8-12,1.1C59.4,28.4,59.2,28.4,59.1,28.4L59.1,28.4z"/>
				</g>
				<path class="st7" d="M76.2,36.3c0,0,0.3,5.1,4.1,6.9c4.2,2,6.6-3.4,6.6-3.4L76.2,36.3L76.2,36.3z"/>
				<path class="st1" d="M81.5,45.2c0.2,0,0.3,0,0.3,0c0.2,0,0.3-0.2,0.3-0.4c0-0.2-0.2-0.3-0.4-0.3c-0.1,0-1.4,0.2-2.2-0.9
					c-0.1-0.2-0.4-0.2-0.5-0.1c-0.2,0.1-0.2,0.4-0.1,0.5C79.7,45.2,80.9,45.3,81.5,45.2L81.5,45.2z"/>
				<g>
					<path class="st4" d="M78.2,28.8c-0.2,1.1-0.8,2-1.4,1.9c-0.6-0.1-1-1.1-0.9-2.2c0.2-1.1,0.8-2,1.4-1.9
						C78,26.7,78.3,27.7,78.2,28.8z"/>
					<path class="st4" d="M89.3,30.3c-0.2,1.1-0.8,2-1.4,1.9c-0.6-0.1-1-1.1-0.9-2.2c0.2-1.1,0.8-2,1.4-1.9
						C89.1,28.2,89.5,29.2,89.3,30.3z"/>
				</g>
				<path class="st2" d="M88.3,7.1c0,0-3.2-8.3-14.1-6.9C62,1.7,57.5,7.1,56.7,13.1c-0.5,4,0.8,6.3,0.8,6.3
					C64,12.4,75.8,9.1,88.3,7.1L88.3,7.1z"/>
				<path class="st10" d="M62.3,15.4c-0.1,0-0.2-0.1-0.3-0.2c-2.8-6.8,1.7-12.1,1.7-12.1c0.1-0.1,0.3-0.1,0.4,0
					c0.1,0.1,0.1,0.3,0,0.4c0,0-4.3,5.1-1.6,11.5c0.1,0.1,0,0.3-0.2,0.4C62.4,15.4,62.4,15.4,62.3,15.4L62.3,15.4z"/>
				<path d="M69.4,11.8c0,0,26.6-9.6,35.5-4.2S94.4,22.2,94.4,22.2S98.1,9.7,69.4,11.8z"/>
				<path class="st10" d="M77.7,6.9c3.8-0.7,7.8-1,7.8-0.9l-0.9-2.2c-1.8-0.2-4.8,0.2-7.4,0.6C77.4,5.3,77.5,6.1,77.7,6.9z"/>
				<path class="st4" d="M64.4,39.1c-0.1,0.1-2,3.3-4.3,4.1v0l0.2-2.4C60.3,40.8,62.2,40.7,64.4,39.1L64.4,39.1z"/>
				<path class="st0" d="M63.4,31c0,0-3.7-6.6-7.6-2.4c-3.2,3.5,0.5,14.4,6.3,11.6L63.4,31L63.4,31z"/>
				<path class="st4" d="M61.8,38.4C61.8,38.4,61.8,38.4,61.8,38.4c0.3,0,0.5-0.2,0.5-0.5c0.1-5.2-3.9-7.6-4.1-7.7
					c-0.2-0.1-0.5,0-0.6,0.2c-0.1,0.2,0,0.5,0.2,0.6l0,0c0.2,0.1,3.8,2.2,3.6,6.8C61.4,38.2,61.5,38.4,61.8,38.4L61.8,38.4z"/>
				<path class="st4" d="M57.8,35c0.1,0,0.2,0,0.3-0.1c0.5-0.3,1.8-0.9,2.5-0.6c0.2,0.1,0.5,0,0.6-0.3c0.1-0.2,0-0.5-0.3-0.6
					c-1.3-0.5-3.2,0.5-3.4,0.7c-0.2,0.1-0.3,0.4-0.2,0.6C57.6,34.9,57.7,35,57.8,35z"/>
			</g>
		</g>
		<path class="st0" d="M87.5,163.4c0,0,0.1,18.9,2.9,23.9c0,0,9.8-7.6,7.9-22.2C97.1,155.2,87.5,163.4,87.5,163.4z"/>
		<g>
			<g>
				<g>
					<path class="st11" d="M89.6,131l-3.1,1.2l-31.8,12.3c-0.5,0.2-1.2-0.1-1.4-0.6L34.2,94.1c-0.2-0.6,0.1-1.2,0.6-1.4l31.8-12.3
						l3.1-1.2c0.6-0.2,1.2,0.1,1.4,0.6l19.2,49.7C90.4,130.2,90.2,130.8,89.6,131z"/>
					<path class="st12" d="M89.6,131l-3.1,1.2l-20-51.7l3.1-1.2c0.6-0.2,1.2,0.1,1.4,0.6l19.2,49.7C90.4,130.2,90.2,130.8,89.6,131
						L89.6,131z"/>
					<path class="st7" d="M45.8,98.5l17.7-6.8c0.4-0.2,0.9,0,1,0.5l1.7,4.3c0.2,0.4,0,0.9-0.5,1L48,104.3c-0.4,0.2-0.9,0-1-0.5
						l-1.7-4.3C45.1,99.1,45.3,98.7,45.8,98.5z"/>
				</g>
				<path class="st0" d="M50.8,112.1c0.6-0.3,3.7-1.5,3.9-1.6c3.5-2.5,3-7.6,5.2-9.2c0,0,11.1-12.4,12.3-9.2
					c0.6,1.8-0.9,4.3-2.3,6.2c0.2-0.1,0.4-0.1,0.5-0.2c3.4-1.3,7.3-6.4,9.5-4.4c2.2,2-1.4,5.1-1.4,5.1s2.6,1.4,0.7,5.4
					c0,0,2,1.7,0.8,4.3c0,0,2.1,2.5,0.2,4.9c-1.6,2-8.9,5.7-21.1,10C55.3,120.8,52.7,117.9,50.8,112.1L50.8,112.1z"/>
			</g>
			<path class="st0" d="M43.4,83.6L39.6,93c-1.3,3.2-2.5,6.3-3.8,9.4c-1.2,3.2-2.5,6.3-3.7,9.4l-0.9,2.3l-0.9,2.3l-0.8,2.3
				c-0.1,0.4-0.2,0.7-0.4,1.1l-0.2,0.6l-0.1,0.3l0,0.1v0c0,0,0,0,0,0v0l0-0.1c0-0.2,0.1-0.4,0.1-0.6c0-0.1,0-0.3,0-0.4
				c0-0.1,0-0.3,0-0.5c0-0.6-0.1-1.5-0.4-2.3c-0.3-0.8-0.8-1.6-1.2-2.2c-0.5-0.6-0.9-0.9-1.3-1.2c-0.4-0.2-0.6-0.4-0.8-0.4
				c-0.2-0.1-0.3-0.1-0.4-0.1c-0.1,0-0.1,0,0,0c0.2,0.1,0.8,0.1,1.3,0.2c0.6,0,1.2,0,2,0c1.4,0,2.9-0.1,4.5-0.3s3.1-0.4,4.7-0.6
				c3.2-0.5,6.5-1,9.7-1.7c1.6-0.3,3.3-0.6,4.9-1l2.4-0.5l2.4-0.5l0.2,0c3.8-0.8,7.7,1.6,8.5,5.4c0.8,3.6-1.3,7.2-4.7,8.3l-1.3,0.4
				l-1.3,0.4l-2.5,0.8c-1.7,0.5-3.4,1-5,1.5c-3.4,1-6.8,1.9-10.3,2.7c-1.8,0.4-3.5,0.8-5.4,1.1c-1.8,0.3-3.7,0.6-5.7,0.8
				c-1,0.1-2,0.2-3.2,0.2c-1.1,0-2.3,0-3.8-0.2c-0.7-0.1-1.5-0.2-2.5-0.5c-0.5-0.1-1-0.3-1.6-0.6c-0.6-0.3-1.2-0.6-1.9-1.1
				c-0.7-0.5-1.5-1.1-2.3-2c-0.8-0.9-1.4-2-1.9-3.3c-0.4-1.2-0.6-2.5-0.6-3.5c0-0.3,0-0.5,0-0.8c0-0.2,0-0.5,0.1-0.7
				c0.1-0.4,0.1-0.9,0.2-1.2l0.4-1.6c0.1-0.4,0.2-0.9,0.4-1.3l0.7-2.6l0.8-2.5l0.8-2.5c1-3.3,2.1-6.6,3.2-9.9
				c1.1-3.3,2.2-6.5,3.3-9.8l1.7-4.9l0.9-2.4l0.9-2.4c1.9-5.2,7.6-7.9,12.8-6s7.9,7.6,6,12.8C43.5,83.3,43.5,83.4,43.4,83.6
				L43.4,83.6L43.4,83.6z"/>
			<path class="st1" d="M25.3,116.8c-0.1,0-0.3,0-0.4-0.1c-0.3-0.2-0.3-0.6-0.1-0.8c1.7-2.1,6.6-3.4,6.8-3.5
				c0.3-0.1,0.7,0.1,0.7,0.4s-0.1,0.7-0.4,0.7c-1.3,0.4-5,1.6-6.2,3.1C25.6,116.8,25.5,116.8,25.3,116.8L25.3,116.8z"/>
			<path class="st1" d="M30.6,113.6c-0.1,0-0.2,0-0.3-0.1c-2-1.1-5-1-5-1c-0.3,0-0.6-0.2-0.6-0.6c0-0.3,0.2-0.6,0.6-0.6
				c0.1,0,3.3-0.1,5.6,1.2c0.3,0.2,0.4,0.5,0.2,0.8C31,113.4,30.8,113.6,30.6,113.6z"/>
			<path class="st2" d="M37.6,60.7c0,0-8.6,1.6-14,13c-5.4,11.3-7.3,19.1-7.3,19.1l23,6.6C39.2,99.4,58.5,59.8,37.6,60.7z"/>
		</g>
	</g>
	<g>
		<path class="st8" d="M151.9,173.5c2.7,0,5.4-1.3,7-3.7c0.1-0.2,3.4-5,6.8-10.8c6.7-11.2,8.2-15.8,8.8-18.4
			c2.1-10,7.8-48.1,8.1-49.7c0.7-4.5-2.5-8.6-7.1-9.3c-4.6-0.7-8.9,2.4-9.5,6.9c-0.1,0.4-5.9,39.3-7.9,48.8
			c-0.7,3.4-7.4,14.9-13.2,23.4c-2.6,3.8-1.5,8.9,2.4,11.4C148.7,173.1,150.3,173.6,151.9,173.5L151.9,173.5z"/>
		<g>
			<path class="st9" d="M160.9,166.7c0.1,0,0.2,0,0.2-0.1c0.3-0.2,0.4-0.5,0.2-0.8c-0.2-0.3-5.1-8.3-12.8-9.7
				c-0.3-0.1-0.6,0.1-0.7,0.4s0.1,0.6,0.5,0.6c7.2,1.3,12,9.1,12.1,9.2C160.5,166.6,160.7,166.7,160.9,166.7L160.9,166.7z"/>
			<path class="st9" d="M149,166.6c0.1,0,0.3-0.1,0.4-0.2c0,0,3-3.3,5.2-6.7c0.2-0.3,0.1-0.6-0.2-0.8s-0.6-0.1-0.8,0.2
				c-2.2,3.3-5.1,6.5-5.1,6.5c-0.2,0.2-0.2,0.6,0.1,0.8C148.7,166.6,148.9,166.7,149,166.6L149,166.6z"/>
			<path class="st9" d="M147.7,161.1c0,0.4,0.4,0.8,0.9,0.7s0.8-0.4,0.7-0.9c0-0.4-0.4-0.8-0.9-0.7S147.7,160.7,147.7,161.1z"/>
		</g>
		<g>
			<path class="st13" d="M147.7,162.5c-1.2-0.2-2.9,1.2-4.4,1.8c-2,0.8-4.9,2.5-6.2,3.9c-2,2.1-7.5,8.6-7.3,11
				c0.2,2.4,5.4-2.9,6.5-3.9c1.1-1.1,2.2-1.4,2.2-1.4s-10.9,12.9-10.6,14.8c0.4,1.9,7.4-4.9,9.1-6.6c0,0-7.7,10.2-7.1,11.3
				c1.2,2.2,10.1-8.9,10.1-8.9s-6,8.9-4.5,9.8c1.6,1,8-8.6,8-8.6s-3.1,6.4-2.1,7.7c0.9,1.4,8.6-11.5,9.7-13.5
				c1.2-2.1,4.4-6.9,5.1-9.9C156.9,168.2,151.6,163.1,147.7,162.5L147.7,162.5z"/>
			<path class="st1" d="M146.9,183.2c-0.1,0.2-0.3,0.4-0.5,0.3c-5.7-0.8-8.8-5.4-9-5.6c-0.1-0.2-0.1-0.5,0.1-0.6s0.5-0.1,0.7,0.1
				l0,0c0,0,3,4.5,8.3,5.2C146.8,182.7,147,182.9,146.9,183.2C147,183.2,147,183.2,146.9,183.2L146.9,183.2z"/>
			<path class="st1" d="M150,171.7c-0.1,0.2-0.2,0.3-0.4,0.4c-5.7,0.7-7,4.9-7,4.9c-0.1,0.2-0.3,0.4-0.6,0.3
				c-0.2-0.1-0.4-0.3-0.3-0.6l0,0c0.1-0.2,1.5-4.9,7.8-5.6c0.3,0,0.5,0.1,0.5,0.4C150,171.6,150,171.7,150,171.7L150,171.7z"/>
		</g>
		<g>
			<path class="st3" d="M218.6,70.6c0,0,9.7-4.3,16.6-0.6s9.5,17,9.5,17H226L218.6,70.6z"/>
			<path class="st3" d="M236.8,99.5c0,0,15-13.7,20.8,0.2c6.2,15.1-1.5,25.3-1.5,25.3l-11.9-9.2L236.8,99.5L236.8,99.5z"/>
			<path class="st4" d="M197.6,70.3c0,0,22.4-14.9,44.6,13.2c22.3,28.1,14.9,65.5-0.8,76.4s-36,1.4-36,1.4L197.6,70.3L197.6,70.3z"
				/>
		</g>
		<g>
			<path class="st0" d="M164.2,342.8h13.9c3.5-14.3,6.6-33.5,9.1-47c2.1-11.1,4.1-21.9,5-31.8c0.5-5.3,0.7-10.3,0.5-15.1
				c0-0.5-0.1-1.1-0.1-1.6c-0.2-3.4-0.7-6.6-1.4-9.6c-0.4-1.7-0.9-3.3-1.5-4.8l-24.5-1.4l-0.1,6.7l-0.1,5.1l0,4.6L165,258
				L164.2,342.8L164.2,342.8z"/>
			<path class="st1" d="M165,258c6.2,2.2,15.1,4.5,27.2,6c0.5-5.3,0.7-10.3,0.5-15.1l-27.6-1L165,258L165,258z"/>
			<g>
				<path class="st11" d="M132.4,364.1h50c0.4-0.7,0.6-1.6,0.7-2.7c0.3-4.1-1-10.7-1.7-14.9c-0.1-0.5-0.1-0.9-0.2-1.4
					c-0.1-0.7-0.1-1.3-0.1-1.7c0-3.4-3.1-2.8-3.1-2.8c-5.1,4.8-10.8-2.4-14.1,0c0,0-1.4,1-5.4,4.5c-4,3.5-10.7,5.8-16.5,8.1
					c-7.4,3-9.5,6-9.9,8.1C131.7,363,132.4,364.1,132.4,364.1L132.4,364.1z"/>
				<path class="st12" d="M132.4,364.1h50c0.4-0.7,0.6-1.6,0.7-2.7h-51C131.7,363,132.4,364.1,132.4,364.1L132.4,364.1z"/>
				<path class="st12" d="M177.3,364.1h1.5c-1.5-1.6-2.9-4.2-2.7-7.8c0.2-4.8,3.2-8.1,5.3-9.8c-0.1-0.5-0.1-0.9-0.2-1.4
					c-2.2,1.6-6,5.3-6.2,11C174.7,359.7,175.9,362.3,177.3,364.1L177.3,364.1z"/>
				<path class="st7" d="M159.4,347.7c0.4,0,0.7-0.2,0.8-0.6c0.1-0.4-0.2-0.9-0.6-1l-3.1-0.8c-0.4-0.1-0.9,0.2-1,0.6s0.2,0.9,0.6,1
					l3.1,0.8C159.3,347.7,159.4,347.7,159.4,347.7z"/>
				<path class="st7" d="M162.5,345.3c0.4,0,0.7-0.2,0.8-0.6c0.1-0.4-0.2-0.9-0.6-1l-3.1-0.8c-0.4-0.1-0.9,0.2-1,0.6s0.2,0.9,0.6,1
					l3.1,0.8C162.4,345.3,162.4,345.3,162.5,345.3z"/>
				<path class="st7" d="M156.1,349.8c0.4,0,0.7-0.2,0.8-0.6c0.1-0.4-0.2-0.9-0.6-1l-3.1-0.8c-0.4-0.1-0.9,0.2-1,0.6s0.2,0.9,0.6,1
					l3.1,0.8C156,349.8,156.1,349.8,156.1,349.8z"/>
				<path class="st7" d="M153,351.5c0.4,0,0.7-0.2,0.8-0.6c0.1-0.4-0.2-0.9-0.6-1l-3.1-0.8c-0.4-0.1-0.9,0.2-1,0.6s0.2,0.9,0.6,1
					l3.1,0.8C152.9,351.5,152.9,351.5,153,351.5z"/>
				<path class="st7" d="M149.6,353.1c0.4,0,0.7-0.2,0.8-0.6c0.1-0.4-0.2-0.9-0.6-1l-3.1-0.8c-0.4-0.1-0.9,0.2-1,0.6s0.2,0.9,0.6,1
					l3.1,0.8C149.5,353.1,149.5,353.1,149.6,353.1z"/>
				<path class="st7" d="M145.9,354.4c0.4,0,0.7-0.2,0.8-0.6c0.1-0.4-0.2-0.9-0.6-1l-3.1-0.8c-0.4-0.1-0.9,0.2-1,0.6s0.2,0.9,0.6,1
					l3.1,0.8C145.8,354.4,145.8,354.4,145.9,354.4z"/>
			</g>
		</g>
		<g>
			<path class="st0" d="M205.3,239.2c0,1.6,0.1,3.3,0.2,4.9c0.1,1.8,0.2,3.5,0.4,5.2c0.4,5.2,1.1,10.4,1.9,15.8
				c1.4,9.2,3.2,18.8,5.2,29.6c2.5,13.5,4.7,31.3,8.1,45.6l14.7,0.5l-4-75.9l-0.8-14.7l-0.1-2.5l-0.5-9l-0.4-7.4h-24.7
				C205.2,234,205.2,236.6,205.3,239.2L205.3,239.2z"/>
			<path class="st1" d="M205.8,249.3c0.4,5.2,1.1,10.4,1.9,15.8c10.7,0.8,18.1,0.7,24.1-0.2l-0.8-14.7L205.8,249.3L205.8,249.3z"/>
			<g>
				<path class="st11" d="M216.3,360.6c0,0.1,0,0.2,0,0.4c0,0.6,0,1.1,0.1,1.5c0.1,1,0.1,1.5,0.1,1.5h32.4c0,0,0.2-1.2,0-3
					c-0.2-3.2-1.3-8.3-5.8-11.7c-6.1-4.6-3.8-3.7-5-5.8c-0.1-0.2-1.2-3.8-1.4-4.1c-1.1-2.2-2-3.2-7.8-3.2c-7.7,0-8.4,3.6-9.2,5.6
					c-0.3,0.8-0.8,2.5-1.3,4.5c-0.2,0.8-0.4,1.6-0.6,2.5c-0.5,2.2-0.9,4.5-1.2,6.3C216.4,357,216.3,359,216.3,360.6L216.3,360.6z"/>
				<path class="st12" d="M216.3,360.6c0,0.1,0,0.2,0,0.4c0,0.6,0,1.1,0.1,1.5c1.6-1.1,2.7-2.5,3.4-4.3c2-5.3-1.1-11.7-1.2-12
					l-0.1,0c-0.2,0.8-0.4,1.6-0.6,2.5c0.7,2.2,1.6,5.8,0.4,8.9C217.9,358.9,217.2,359.8,216.3,360.6L216.3,360.6z"/>
				<path class="st12" d="M216.3,361c0,1.8,0.2,3,0.2,3h32.4c0,0,0.2-1.2,0-3H216.3z"/>
				<path class="st7" d="M227.9,346.1c0.1,0,0.1,0,0.2,0c4.1-1,7.5-0.2,7.5-0.1c0.5,0.1,1-0.1,1.1-0.6s-0.1-1-0.6-1.1
					c-0.2,0-3.9-1-8.5,0.1c-0.5,0.1-0.8,0.6-0.7,1.1C227.1,345.8,227.5,346.1,227.9,346.1L227.9,346.1z"/>
				<path class="st7" d="M227.5,342.8c0.1,0,0.1,0,0.2,0c4.1-1,7.5-0.2,7.5-0.1c0.5,0.1,1-0.1,1.1-0.6s-0.1-1-0.6-1.1
					c-0.2,0-3.9-1-8.5,0.1c-0.5,0.1-0.8,0.6-0.7,1.1C226.8,342.5,227.1,342.8,227.5,342.8L227.5,342.8z"/>
				<path class="st7" d="M229.3,349c0.1,0,0.1,0,0.2,0c4.1-1,7.5-0.2,7.5-0.1c0.5,0.1,1-0.1,1.1-0.6c0.1-0.5-0.1-1-0.6-1.1
					c-0.2,0-3.9-1-8.5,0.1c-0.5,0.1-0.8,0.6-0.7,1.1C228.5,348.7,228.9,349,229.3,349L229.3,349z"/>
				<path class="st7" d="M230.9,352.2c0.1,0,0.1,0,0.2,0c4.1-1,7.5-0.2,7.5-0.1c0.5,0.1,1-0.1,1.1-0.6s-0.1-1-0.6-1.1
					c-0.2,0-3.9-1-8.5,0.1c-0.5,0.1-0.8,0.6-0.7,1.1C230.1,351.9,230.5,352.2,230.9,352.2L230.9,352.2z"/>
			</g>
		</g>
		<path class="st8" d="M170,114.6c0.1,1.1,0.2,2.4,0.2,4c0,0.5,0,1.1,0.1,1.7c0.2,4.9,0.3,11.2,0.6,17.9c0,0.6,0.1,1.2,0.1,1.8
			c0.7,14.3-1.9,20.5-1.9,25.2c0,12.7,48.4,9,56.2,5.9c5.9-2.4,7.7-31.7,6.3-49.9c-0.1-0.6-0.1-1.2-0.1-1.8c-0.4-5-0.6-9-0.6-11.4
			c0.2-11-0.9-22.8-2.5-27.9c-1.6-5.1-20.3-9.5-20.3-9.5l-21.7,2.2c0,0-8.7,1.8-16.4,9.2C162.3,89.2,168.9,103,170,114.6L170,114.6z
			"/>
		<path class="st9" d="M170.1,113.4C170.1,113.4,170.1,113.4,170.1,113.4c0.3,0,0.6-0.2,0.6-0.5c0.6-8.1-0.5-19.7-0.5-19.8
			c0-0.3-0.3-0.5-0.6-0.5c-0.3,0-0.5,0.3-0.5,0.6c0,0.1,1.1,11.6,0.5,19.6C169.6,113.1,169.8,113.3,170.1,113.4z"/>
		<path class="st9" d="M204,130.6c0,0-0.1,0-0.1,0c-11.4-0.8-22.3-13.2-22.7-13.7c-0.2-0.3-0.2-0.7,0.1-0.9c0.3-0.2,0.7-0.2,0.9,0.1
			c0.1,0.1,10.9,12.5,21.8,13.3c0.4,0,0.6,0.3,0.6,0.7C204.5,130.3,204.3,130.5,204,130.6L204,130.6z"/>
		<path class="st9" d="M193.4,83.8c8.2,0.2,16.1-8.9,16.4-9.3c0.2-0.3,0.2-0.7-0.1-0.9s-0.7-0.2-0.9,0.1c-0.1,0.1-7.8,9-15.4,8.8
			l0,0c-5.3-0.1-7.3-5.6-7.4-5.8c-0.1-0.3-0.5-0.5-0.8-0.4c-0.3,0.1-0.5,0.5-0.4,0.8C184.9,77.4,187.2,83.7,193.4,83.8L193.4,83.8z"
			/>
		<g>
			<path class="st2" d="M192.9,20c0.1,1.7,0.4,3.5,1,5.3c3.8,11.8,17.7,24.7,31.6,25c16,0.3,15.4-16.9,15.4-16.9s-7.8,8.4-14.7,5.2
				c-6.9-3.2,5.6-26.3-12.5-30.2c-11.8-2.5-17,3.2-19.2,7.4C193.2,18.1,192.9,20,192.9,20L192.9,20z"/>
			<path class="st14" d="M192.9,20c0.1,1.7,0.4,3.5,1,5.3c9.3,5.1,23,11.4,23,11.4s1.4-9.2-5.5-16.1c-5.1-5.2-12.8-5.6-17-4.8
				C193.2,18.1,192.9,20,192.9,20L192.9,20z"/>
			<path class="st2" d="M198.8,61.8c0,0,11.7-1.4,15.7-12.6c3.8-10.7,1.8-16.4-1.1-22.5c-2.1-4.6-9.5-11-20.4-9.5
				c-11.1,1.5-19.6,6.5-21.4,15.2C168.3,48.6,180.6,69.4,198.8,61.8L198.8,61.8z"/>
			<g>
				<path class="st1" d="M177.1,48.8c0,0-3.6-3.1-4.8,0.7c-1.2,3.8,1.1,10.8,5.6,9L177.1,48.8L177.1,48.8z"/>
				<g>
					<path class="st0" d="M187.5,66l1,9.7c0,0,6.9,7.8,21.2-4.6c-3.4-2.8-4.4-9-3.8-13c0,0-1.1,0.6-2.8,1.9
						c-0.3,0.3-0.8,0.5-1.2,0.7C198.2,63,192.5,65.7,187.5,66z"/>
					<path class="st4" d="M187.5,66l0.5,4.6c4.2-1.5,11.5-4.8,15.1-10.5c-0.4,0.2-0.8,0.5-1.2,0.7C198.2,63,192.5,65.7,187.5,66
						L187.5,66z"/>
				</g>
				<path class="st0" d="M174,49.3c0.1,1,0.3,2,0.4,2.9c1.1,6.8,2.1,10.4,4,11.9c9.6,7.4,26.9-5.3,27.4-5.7l0,0
					c0.1-0.8,0.1-1.6,0.1-2.3c0.3-6.5-0.5-12.4-1.9-17.9c-0.5-5.9-4.9-10.9-10.9-12.2c-6.2-1.3-11.1,1.9-14.1,3.3
					c-4.6,2.1-6.7,8.5-5.5,17.1C173.7,47.3,173.9,48.3,174,49.3L174,49.3z"/>
				<path class="st4" d="M179.2,47.3C179.2,47.3,179.2,47.3,179.2,47.3c-0.2,0.1-0.5-0.1-0.6-0.3c0,0-0.4-1.1-1.3-1.1
					c-1,0.1-1.5,1.3-1.6,1.3c-0.1,0.2-0.4,0.3-0.6,0.2s-0.3-0.3-0.2-0.6c0-0.1,0.7-1.7,2.3-1.8c1.3-0.1,2,1.1,2.2,1.7
					C179.5,47,179.4,47.3,179.2,47.3L179.2,47.3z"/>
				<path class="st4" d="M186.3,45.7C186.3,45.7,186.3,45.7,186.3,45.7c0.3,0,0.5-0.2,0.6-0.4c0,0,0.2-1.3,1.2-1.4
					c1.2-0.1,2,1.1,2,1.1c0.1,0.2,0.5,0.3,0.7,0.2s0.3-0.4,0.2-0.7c-0.1-0.1-1.1-1.8-2.9-1.6c-1.5,0.1-2,1.6-2.1,2.3
					C185.8,45.4,186,45.6,186.3,45.7L186.3,45.7z"/>
				<path class="st7" d="M191,51.2c0,0-0.9,5.4-5.1,6.8c-4.8,1.6-6.8-4.2-6.8-4.2L191,51.2L191,51.2z"/>
				<path class="st1" d="M184.4,60.2c-0.2,0-0.3,0-0.3,0c-0.2,0-0.4-0.3-0.3-0.5c0.1-0.2,0.3-0.3,0.5-0.3c0.1,0,1.5,0.3,2.5-0.8
					c0.1-0.2,0.4-0.2,0.6,0c0.2,0.1,0.2,0.4,0,0.6C186.3,60.2,185,60.2,184.4,60.2L184.4,60.2z"/>
				<path class="st2" d="M186,36.7c0,0-1.7,0.4-0.9,1.9c0.8,1.5,4.1-0.7,7,1.8C192.1,40.4,192.7,36.5,186,36.7L186,36.7z"/>
				<path class="st1" d="M188.3,48.8c0.1,0.8,1.9,1.2,4,0.9c2.1-0.3,3.7-1.2,3.6-2s-1.9-1.2-4-0.9C189.8,47.1,188.2,48,188.3,48.8z"
					/>
				<g class="st15">
					<path class="st1" d="M174,49.3c0.1,1,0.3,2,0.4,2.9c1.9-0.3,3.3-1.1,3.2-1.9S175.9,49.1,174,49.3L174,49.3z"/>
				</g>
				<path class="st4" d="M181.5,49.5c-0.5,0.1-0.9,0-0.9,0c-0.1,0-0.2-0.1-0.3-0.2c-0.1-0.1-0.1-0.2-0.1-0.4l1-5
					c0.1-0.2,0.3-0.4,0.6-0.4c0.2,0,0.4,0.3,0.4,0.5l-0.9,4.5c0.5,0,1.2-0.2,1.8-0.7c0.2-0.2,0.5-0.1,0.6,0.1
					c0.1,0.2,0.1,0.5-0.1,0.6C182.8,49.2,182.1,49.4,181.5,49.5L181.5,49.5z"/>
				<path class="st4" d="M201.6,54.3c0.1,0.1,2,3.2,4.3,3.9l0,0v0c0.1-0.8,0.1-1.6,0.1-2.3C205.9,55.9,203.8,55.8,201.6,54.3
					L201.6,54.3z"/>
				<path class="st0" d="M202.6,46.4c0,0,3.6-6.5,7.6-2.3c3.2,3.4-0.5,14-6.3,11.4L202.6,46.4L202.6,46.4z"/>
				<path class="st4" d="M204.2,53.7C204.2,53.7,204.2,53.7,204.2,53.7c-0.3,0-0.5-0.2-0.5-0.4c-0.1-5.1,3.9-7.4,4.1-7.5
					c0.2-0.1,0.5,0,0.6,0.2c0.1,0.2,0.1,0.5-0.2,0.6l0,0c-0.1,0.1-3.8,2.2-3.6,6.7C204.6,53.4,204.5,53.6,204.2,53.7L204.2,53.7z"/>
				<path class="st4" d="M208.1,50.3c-0.1,0-0.2,0-0.3-0.1c-0.4-0.3-1.8-0.9-2.5-0.6c-0.2,0.1-0.5,0-0.6-0.2s0-0.5,0.2-0.6
					c1.3-0.5,3.2,0.5,3.4,0.6c0.2,0.1,0.3,0.4,0.2,0.6C208.4,50.2,208.3,50.3,208.1,50.3z"/>
			</g>
			<path class="st2" d="M204.2,32.1c0,0-5.4,6.3-8.1,5.3c-2.8-1,0.7-6.5,0.7-6.5s-8.4,6-12.1,4.9s2-6.1,2-6.1s-6.1,7-10.1,7.1
				c-4,0.2-0.7-5.2-0.7-5.2s-2.6,7.3-5.1,7c-2.5-0.3-0.6-10.5,6.8-14.9C184.9,19.4,205.1,17.3,204.2,32.1L204.2,32.1z"/>
			<path class="st2" d="M178.1,37.8c0,0,1.8-0.1,1.4,1.6s-4.1,0.4-6.2,3.6C173.2,43,171.6,39.3,178.1,37.8z"/>
			<path class="st2" d="M199.1,34.9c0,0-0.2,12.8,3,12.4s5.8-5.7,2.1-15.2L199.1,34.9z"/>
		</g>
		<g>
			<path class="st4" d="M152.2,248.9c32.3,16.7,91.5,6.9,91.5,6.9c0.1-7.3-0.9-17.5-2.4-28.6c-0.1-0.6-0.1-1.1-0.2-1.6
				c-0.9-6.6-1.9-13.4-3-20.1c-0.1-0.4-0.1-0.9-0.2-1.3c-0.3-2.1-0.7-4.1-1-6.1c-0.1-0.4-0.1-0.9-0.2-1.3c-0.6-3.8-1.3-7.4-1.9-10.8
				c-0.1-0.5-0.2-1-0.3-1.4c-2.5-13.6-4.6-23.4-4.6-23.4c-34.6,9.4-59.8-0.8-59.8-0.8c-2.4,6.4-4.4,12.6-6.2,19.2
				c-0.1,0.5-0.3,1.1-0.4,1.6c-2.1,7.9-3.7,16.3-5.3,25.9c-0.1,0.4-0.1,0.9-0.2,1.4c-0.5,3-1,6.2-1.5,9.5c-0.1,0.6-0.2,1.1-0.2,1.6
				l0,0c-0.8,5.4-1.6,11.1-2.4,17.3c-0.1,0.6-0.1,1.1-0.2,1.7C153.1,241.9,152.7,245.4,152.2,248.9L152.2,248.9z"/>
			<path class="st3" d="M203.3,251.4c2.6,0,5.1,0,7.4-0.1c17.7-0.5,31.6-2.8,31.7-2.8c0.3-0.1,0.6-0.4,0.5-0.7s-0.4-0.6-0.7-0.5
				c-0.1,0-14,2.3-31.6,2.8c-16.2,0.5-39.1-0.4-56-7.5c-0.3-0.1-0.7,0-0.8,0.3c-0.1,0.3,0,0.7,0.3,0.8
				C168.8,249.8,187.9,251.4,203.3,251.4L203.3,251.4z"/>
			<path class="st3" d="M200.3,174c3.2,0,6.2-0.1,9-0.3c12.3-0.9,21.5-3.2,21.6-3.2c0.3-0.1,0.5-0.4,0.4-0.7
				c-0.1-0.3-0.4-0.5-0.8-0.4c-0.1,0-9.2,2.3-21.4,3.2c-11.2,0.8-27.4,0.5-40.6-5.4c-0.3-0.1-0.7,0-0.8,0.3c-0.1,0.3,0,0.7,0.3,0.8
				C178.2,172.7,190.1,174,200.3,174L200.3,174z"/>
			<path class="st3" d="M206.6,192.5c0.5-0.8,1.5-1.4,2.5-2c1.2-0.8,2.5-1.7,2.6-2.5c0.1-0.4-0.1-0.7-0.4-1.2c-1-1.2-1-2.8,0-4.4
				c1.3-2.1,4.3-4.2,6.6-3.8c0.6,0,5.9,0.3,6.9,3.8c0.2,0.6,0.1,1.2-0.1,1.6c-0.5,0.9-1.7,1.2-2.9,1.6c-1.7,0.5-3.6,1-4.1,2.8
				c-0.4,1.3-0.2,2.7-0.1,4c0.3,2.7,0.6,5.7-4,7.2c-0.9,0.3-1.8,0.4-2.5,0.4c-2.1,0-3.4-1.1-3.9-1.9
				C205.7,196.3,205.7,193.7,206.6,192.5L206.6,192.5z M208.1,197.4c0.7,1,2.2,1.9,5.1,1c3.7-1.2,3.5-3.2,3.2-5.9
				c-0.1-1.4-0.3-2.9,0.1-4.4c0.7-2.4,3.1-3.1,4.9-3.6c1-0.3,1.9-0.5,2.2-1c0-0.1,0.1-0.2,0-0.7c-0.8-2.7-5.8-2.9-5.8-2.9
				c0,0-0.1,0-0.1,0c-1.6-0.3-4.2,1.3-5.4,3.2c-0.5,0.8-0.9,2-0.1,3c0.6,0.7,0.8,1.4,0.7,2.1c-0.2,1.4-1.7,2.4-3.1,3.4
				c-0.9,0.6-1.7,1.2-2.1,1.7C207,194.1,207.1,196.1,208.1,197.4L208.1,197.4z"/>
			<path class="st3" d="M158.1,207.2c1.1,0.9,2.4,1.6,3.7,2c3.4,1.2,8.1,1.4,10.3-2c2.4-3.7,0.3-5.7-2.1-8c-1.7-1.6-3.5-3.3-3.6-5.7
				c-0.1-2.7,2-4.3,3.9-5.6c2.5-1.8,3.9-3,2-5.5c-1-1.4-2.3-2.2-3.7-2.4c-0.3,0-0.6-0.1-0.8-0.1c-1.8,0-3.5,0.8-4.4,1.3
				c0.1-0.5,0.3-1.1,0.4-1.6c1.3-0.6,3.1-1.2,5-0.9c1.8,0.3,3.3,1.2,4.5,2.9c2.6,3.6,0,5.5-2.3,7.2c-1.8,1.3-3.6,2.6-3.4,4.6
				c0.1,1.9,1.6,3.3,3.2,4.9c2.4,2.3,5.2,4.9,2.3,9.5c-1.6,2.5-4.2,3.4-6.9,3.4c-1.7,0-3.4-0.4-4.9-0.9c-1.2-0.4-2.4-1.1-3.5-1.8
				C157.9,208.1,158,207.6,158.1,207.2L158.1,207.2z"/>
			<path class="st3" d="M153.8,237c0.6,0.9,1.4,1.6,2.5,2c3.9,1.2,7.6-1,8.9-3.8c1-2.2,0.4-4.2-1.7-5.5c-1.2-0.8-1.9-1.6-2.1-2.6
				c-0.4-1.8,0.8-3.4,2-5.1c0.9-1.2,1.8-2.5,1.6-3.4c-0.1-0.4-0.3-0.7-0.7-0.9c-0.6-0.4-1.3-0.6-2-0.6c-2,0-4.3,1.4-6.1,2.6
				c0.1-0.6,0.2-1.1,0.2-1.6c2.6-1.7,5.9-3.2,8.6-1.4c0.7,0.5,1.1,1.1,1.2,1.7c0.2,1.4-0.8,2.8-1.8,4.3c-1,1.4-2.1,2.9-1.8,4.2
				c0.1,0.7,0.7,1.3,1.6,1.8c2.6,1.6,3.5,4.3,2.2,7.1c-1.2,2.6-4.3,4.8-7.9,4.8c-0.8,0-1.7-0.1-2.6-0.4c-1-0.3-1.7-0.8-2.4-1.4
				C153.6,238.1,153.7,237.5,153.8,237L153.8,237z"/>
			<path class="st3" d="M232.5,216c1.1-0.3,1.8-0.7,2.1-1.3c0.6-1.1,0.1-2.8-0.4-4.5c-0.5-1.7-1.1-3.4-0.4-4.6
				c0.3-0.6,0.9-1,1.7-1.3c0.8-0.2,1.6-0.2,2.3-0.1c0.1,0.4,0.1,0.9,0.2,1.3c-0.7-0.2-1.4-0.3-2.1-0.1c-0.5,0.1-0.8,0.4-1,0.7
				c-0.4,0.8,0,2.3,0.5,3.7c0.6,1.9,1.2,3.9,0.3,5.4c-0.5,0.9-1.5,1.5-2.9,1.9c-2.4,0.6-3.7,2.4-3.4,4.8c0.4,3.1,3.2,6.3,7.3,6.3h0
				c1.8,0,3.2-1,4.3-2.5c0.1,0.6,0.1,1.1,0.2,1.6c-1.2,1.3-2.6,2.1-4.5,2.1h0c-4.8,0-8.1-3.8-8.5-7.3
				C227.9,219,229.5,216.7,232.5,216L232.5,216z"/>
			<path class="st3" d="M189.3,208.9c1.6-3.5,4.6-6,8.2-6.8c2.5-0.6,4.6-0.3,6.2,0.9c1.1,0.8,1.6,1.6,1.6,2.4c0,1.3-1.3,2.3-2.9,3.5
				c-1.4,1.1-3.1,2.4-4.2,4.1c-0.9,1.5,0.6,2.7,3.3,4.6c2.2,1.6,4.5,3.1,4.8,5.4c0.1,1.3-0.4,2.7-1.8,4.1c-1.3,1.4-3.1,2.1-5,2.1
				c-1.7,0-3.6-0.6-5.4-1.7c-3.5-2.3-6.4-6.5-6.4-11.8C187.8,213.6,188.2,211.3,189.3,208.9L189.3,208.9z M194.8,226.5
				c3.3,2.1,6.7,2,8.9-0.2c1.1-1.2,1.6-2.2,1.5-3.2c-0.2-1.8-2.2-3.2-4.2-4.6c-2.5-1.8-5.1-3.6-3.6-6.1c1.2-2,3-3.4,4.5-4.5
				c1.3-1,2.4-1.8,2.4-2.5c0-0.4-0.4-0.9-1.1-1.4c-0.9-0.6-1.9-1-3.1-1c-0.6,0-1.3,0.1-2.1,0.3c-1.6,0.4-3.1,1.1-4.4,2.2
				c-1.3,1.1-2.3,2.4-3,4C187,216.9,190.3,223.5,194.8,226.5L194.8,226.5z"/>
			<path class="st3" d="M181.1,185.5c3.1-5.4,9.3-8.3,15.5-7.1c0.4,0.1,0.8,0.2,1.2,0.3c1.3,0.4,2.2,1.3,2.6,2.5
				c0.5,1.9-0.3,4.3-2.3,6.6c-1.3,1.5-3.3,2.3-5.2,3c-3.2,1.2-6,2.2-6,6.2c0,4.4-2.5,4.8-3.3,4.8c0,0-0.1,0-0.1,0
				c-2.4,0-5.3-2.6-5.6-6.6c0-0.2,0-0.3,0-0.5C177.8,192.5,178.9,189.3,181.1,185.5L181.1,185.5z M179.1,195.3
				c0.2,3.5,2.7,5.5,4.4,5.4c1.4-0.1,2.1-1.4,2.1-3.6c0-4.8,3.6-6.2,6.8-7.4c1.9-0.7,3.6-1.4,4.7-2.6c1.7-2,2.5-4.1,2.1-5.5
				c-0.2-0.8-0.8-1.4-1.8-1.7c-0.3-0.1-0.6-0.2-1-0.2c-0.9-0.2-1.7-0.2-2.6-0.2c-2.4,0-4.7,0.6-6.7,1.8c-2,1.2-3.7,2.8-4.9,4.9
				C180,189.9,178.9,193.1,179.1,195.3L179.1,195.3z"/>
			<path class="st3" d="M211.9,209.2c0.6-2.4,2.3-4,4.7-4.4c2.4-0.4,4.6,0.5,6.1,2.8c2.2,3.2,2.4,8.3,0.3,11.3
				c-0.7,1-1.5,1.5-2.5,1.6c-0.1,0-0.3,0-0.4,0c-1.6,0-3.4-1-5.6-2.9C212.2,215.4,211.2,212.2,211.9,209.2L211.9,209.2z
				 M215.4,216.7c2,1.8,3.7,2.7,5,2.5c0.7-0.1,1.2-0.4,1.7-1.1c1.8-2.6,1.6-7-0.3-9.9c-0.8-1.1-2-2.3-4-2.3c-0.3,0-0.6,0-0.9,0.1
				c-2,0.4-3.2,1.5-3.8,3.5c-0.1,0.6-0.2,1.2-0.2,1.8C212.9,213.3,213.8,215.3,215.4,216.7L215.4,216.7z"/>
			<path class="st3" d="M172.1,212.2c2.1-2.8,6.2-4.4,9.3-3.7c1,0.2,1.8,0.8,2.2,1.6c0.7,1.3,0.5,3.2-0.5,5.6
				c-1.1,2.6-3.5,4.4-6.2,4.7c-0.2,0-0.5,0-0.7,0c-1.9,0-3.4-0.9-4.4-2.5C170.6,216.2,170.7,214.1,172.1,212.2L172.1,212.2z
				 M172.7,217.4c0.9,1.4,2.2,2,4,1.9c1.2-0.1,2.2-0.6,3.1-1.2s1.6-1.6,2.1-2.7c0.9-2.1,1.1-3.7,0.6-4.6c-0.2-0.5-0.7-0.8-1.4-0.9
				c-0.4-0.1-0.8-0.1-1.3-0.1c-2.4,0-5.2,1.4-6.8,3.4C172.4,214,171.7,215.6,172.7,217.4L172.7,217.4z"/>
			<path class="st3" d="M207.1,243.6c-0.9,1.7-2.3,2.7-4.2,2.8c-0.2,0-0.5,0-0.7,0c-2.8-0.1-5.3-1.7-6.6-4.2c-1.2-2.4-1.6-4.3-1-5.6
				c0.4-0.8,1-1.4,2-1.7c3-0.9,7.3,0.4,9.6,3C207.7,239.7,208,241.7,207.1,243.6L207.1,243.6z M205.2,238.7c-1.7-1.9-4.6-3-7-2.8
				c-0.4,0-0.9,0.1-1.3,0.2c-0.6,0.2-1.1,0.5-1.3,1c-0.4,0.9-0.1,2.6,1,4.6c0.5,1.1,1.4,1.9,2.3,2.5s2.1,1,3.2,1
				c1.8,0.1,3-0.7,3.8-2.2C206.9,241.2,206.1,239.6,205.2,238.7L205.2,238.7z"/>
			<path class="st3" d="M230.7,191.3c0.3-2.9,1.9-5.1,3.7-6.6c0.1,0.5,0.2,0.9,0.3,1.4c-1.4,1.4-2.5,3.1-2.7,5.3
				c-0.2,2.7,1.8,4.2,3.1,4.8c0.5,0.3,1.1,0.5,1.6,0.6c0.1,0.4,0.1,0.9,0.2,1.3c-0.8-0.2-1.6-0.5-2.4-0.9
				C231.8,196,230.4,193.8,230.7,191.3L230.7,191.3z"/>
			<path class="st3" d="M210.9,227.4c0.8-1.4,2.1-2.3,3.9-2.6c1.5-0.3,2.6-0.1,3.3,0.5c1.1,0.8,1.2,2.3,1.3,3.8
				c0.2,2.6,0.3,4.8,4.6,4.8c4.7,0,7.8,1.1,9.2,3.2c1.1,1.6,1.1,3.7,0,5.9c-0.9,2-4.5,2.9-8,2.9c-0.4,0-0.8,0-1.1,0
				c-5.1-0.3-11.1-2.3-12.8-7.3C211,238.1,208.5,231.3,210.9,227.4L210.9,227.4z M212.4,238.1C212.4,238.1,212.4,238.1,212.4,238.1
				c1.5,4.4,7,6.2,11.7,6.5c3.9,0.2,7.3-0.7,7.9-2.1c0.5-1.1,1.1-3.1,0.1-4.8c-1.2-1.8-4-2.7-8.2-2.7c-5.4,0-5.6-3.4-5.8-5.9
				c-0.1-1.2-0.1-2.4-0.8-2.9c-0.3-0.2-0.7-0.3-1.2-0.3c-0.3,0-0.7,0-1.1,0.1c-1.4,0.2-2.4,0.9-3.1,2
				C209.9,231.5,212.3,238.1,212.4,238.1L212.4,238.1z"/>
			<path class="st3" d="M171.7,230.4c1.7-4.3,6.9-6.8,10.4-6.4c1.8,0.2,2.8,1.2,3,2.6c0.1,1.3-0.3,2.8-0.7,4.2
				c-0.6,1.9-1.1,3.7-0.3,4.9c0.6,0.9,1.8,1.5,3.6,1.8c2.5,0.4,3.2,1.7,3.4,2.4c0.3,1.3-0.4,2.8-1.9,4c-1.3,1-3.3,1.8-5.8,1.8
				c-1.7,0-3.5-0.4-5.4-1.4c-2.8-1.4-5-3.7-6.1-6.4C170.7,235.4,170.6,232.8,171.7,230.4L171.7,230.4z M172.9,237.6
				c1,2.5,3,4.5,5.5,5.8c4.2,2.1,7.9,1.1,9.9-0.3c1.1-0.9,1.7-1.9,1.5-2.8c-0.2-0.7-1-1.3-2.4-1.5c-2.3-0.4-3.7-1.2-4.5-2.4
				c-1.1-1.7-0.4-3.8,0.2-5.9c0.4-1.3,0.8-2.6,0.7-3.7c-0.1-1.1-1.1-1.5-1.9-1.6c-0.2,0-0.4,0-0.7,0c-2.8,0-6.9,1.9-8.4,5.6
				C171.9,233,172,235.3,172.9,237.6L172.9,237.6z"/>
		</g>
		<g>
			<path class="st4" d="M177.6,76.1c0,0,1.9,25.2,2.3,36.2c0.4,11.1-1.9,20.5-4.1,26.6c-1.7,4.7-4.4,9.7-4.5,9.7
				c-0.6,0.2-3.8-5.9-2.2-15.7c2.9-18.2,0.3-47.6,1.6-51.8S177.6,76.1,177.6,76.1L177.6,76.1z"/>
			<path class="st3" d="M170.7,98.8c1.7-0.7,4.4-1.7,7.2-1.9c1.2-0.1,2.3,0.8,2.4,2c0.3,3.1,0.8,8.9,0.6,12.8c-0.1,1.1-1,2-2.1,2.1
				l-6.3,0.4c-1.4,0.1-2.5-1-2.4-2.3c0.1-2.7,0.1-7.1-0.6-10.6C169.2,100.3,169.8,99.2,170.7,98.8L170.7,98.8z"/>
		</g>
		<g>
			<path class="st4" d="M223.3,76c0,0-10.7,8.1-11.8,23.2c-1.2,15.1,11.6,34.4,24.2,38.9c0,0,2.6,4.6,0.7,10.8
				c0,0-26.7-4.9-32.6-36.7s11.9-38.8,11.9-38.8C217.9,72.5,221.8,74.3,223.3,76L223.3,76z"/>
			<path class="st3" d="M210.8,94.5c-1.7-0.5-4.5-1.2-7.3-1.1c-1.2,0.1-2.2,1.1-2.1,2.2c0.1,3,0.2,8.9,0.9,12.7
				c0.2,1.1,1.2,1.8,2.3,1.8l6.2-0.3c1.3-0.1,2.3-1.2,2.1-2.5c-0.4-2.7-1-7-0.6-10.5C212.5,95.8,211.8,94.9,210.8,94.5L210.8,94.5z"
				/>
		</g>
		<g>
			<g>
				<path class="st2" d="M183.2,163.3l42.9,31.8c0.5,0.4,1.1,0.3,1.5-0.2l22.9-29.4c0.4-0.5,0.3-1.1-0.2-1.5l-42.9-31.8
					c-0.5-0.4-1.1-0.3-1.5,0.2L183,161.9C182.6,162.3,182.7,163,183.2,163.3L183.2,163.3z"/>
				<path class="st7" d="M201.9,162.9l11.3-14.6c0.4-0.4,0.3-1.1-0.2-1.4l-3.4-2.5c-0.5-0.3-1.1-0.2-1.5,0.2l-11.3,14.6
					c-0.4,0.4-0.3,1.1,0.2,1.4l3.4,2.5C200.9,163.4,201.6,163.3,201.9,162.9z"/>
				<path class="st10" d="M183.2,163.3l42.9,31.8c0.5,0.4,1.1,0.3,1.5-0.2l2.7-3.5l-44.7-33.1l-2.7,3.5
					C182.6,162.3,182.7,163,183.2,163.3z"/>
			</g>
			<g>
				<path class="st8" d="M216.8,154.6l3.3-4.7c1.1-1.6,2.2-3.1,3.3-4.7c2.2-3.1,4.3-6.3,6.2-9.4c1-1.6,1.9-3.1,2.8-4.7
					c0.4-0.8,0.8-1.5,1.2-2.3s0.7-1.5,1-2.2c0.2-0.5,0.4-1,0.5-1.4c-0.1-0.1-0.1-0.3-0.2-0.5c-0.1-0.3-0.3-0.6-0.5-0.9
					c-0.4-0.7-0.8-1.4-1.3-2.1s-0.9-1.5-1.4-2.2c-1-1.5-2.1-3-3.1-4.6c-1.1-1.5-2.2-3.1-3.3-4.6s-2.3-3.1-3.4-4.6l-3.5-4.6l-3.1-4.1
					c1.4-2.1,2.7-4.1,4.1-6.1c2.8-3.9,5.7-7.8,8.1-12c0.2,0.2,0.3,0.4,0.5,0.6c1.2,1.6,2.5,3.2,3.7,4.8c1.2,1.6,2.4,3.2,3.6,4.8
					l1.8,2.4l1.8,2.5c2.3,3.3,4.6,6.6,6.8,10.1c1.1,1.7,2.2,3.5,3.3,5.3c0.5,0.9,1.1,1.8,1.6,2.8c0.5,1,1.1,2,1.6,3
					c0.3,0.5,0.5,1.1,0.8,1.7c0.3,0.6,0.5,1.2,0.8,2c0.3,0.7,0.5,1.5,0.8,2.7c0.1,0.6,0.2,1.2,0.3,2.1v0.2l0,0.2v0.4
					c0,0.2,0,0.2,0,0.3v0.2l0,0.5l0,0.2l0,0.2c0,0.3-0.1,0.6-0.1,0.8c0,0.2-0.1,0.5-0.1,0.7c-0.1,0.2-0.1,0.5-0.1,0.7l-0.1,0.3
					l0,0.2l0,0.1l-0.2,0.6c-0.1,0.2-0.1,0.4-0.2,0.6c-0.1,0.4-0.3,0.7-0.4,1.1c-0.5,1.4-1.1,2.5-1.7,3.6c-1.2,2.1-2.4,4-3.6,5.8
					c-1.2,1.8-2.5,3.5-3.8,5.1c-2.6,3.3-5.3,6.4-8.1,9.3c-1.4,1.5-2.8,2.9-4.3,4.4c-0.7,0.7-1.5,1.4-2.2,2.1
					c-0.4,0.4-0.7,0.7-1.1,1.1l-0.6,0.5l-0.6,0.5c-2.8,2.5-7.2,2.4-9.8-0.3c-2.2-2.4-2.4-5.9-0.6-8.4L216.8,154.6L216.8,154.6z"/>
				<path class="st16" d="M235.3,124.7C235.3,124.7,235.3,124.7,235.3,124.7c0,0,0-0.1,0-0.1c0,0,0-0.1,0-0.1s0-0.1,0-0.1v0v0v0
					c0,0,0,0,0,0c0,0,0,0,0,0c0,0,0,0.1,0,0.1v0l0,0.1c0,0,0,0.1,0,0.1v0.1L235.3,124.7L235.3,124.7z"/>
			</g>
			<g>
				<path class="st9" d="M232.5,157.9c0.1,0,0.1,0,0.2-0.1c0.3-0.1,0.4-0.4,0.2-0.7c-0.1-0.3-3.8-7.8-10.6-9.7
					c-0.3-0.1-0.6,0.1-0.6,0.3c-0.1,0.3,0.1,0.5,0.4,0.6c6.4,1.8,9.9,9.1,10,9.1C232.2,157.7,232.3,157.9,232.5,157.9L232.5,157.9z"
					/>
				<path class="st9" d="M222,156.8c0.1,0,0.2,0,0.4-0.1c0,0,2.9-2.7,5.2-5.5c0.2-0.2,0.1-0.5-0.1-0.7c-0.2-0.2-0.5-0.1-0.7,0.1
					c-2.2,2.8-5.1,5.4-5.1,5.4c-0.2,0.2-0.2,0.5,0,0.7C221.7,156.8,221.8,156.8,222,156.8L222,156.8z"/>
				<ellipse class="st9" cx="221.9" cy="151.8" rx="0.7" ry="0.7"/>
			</g>
			<g>
				<path class="st9" d="M215.2,100.9h2.1c0.3,0,0.5-0.2,0.5-0.5s-0.2-0.5-0.5-0.5h-2.1c-0.3,0-0.5,0.2-0.5,0.5
					S214.9,100.9,215.2,100.9z"/>
				<path class="st9" d="M231.2,119.9c0.1,0,0.2,0,0.3-0.1c0.2-0.2,0.3-0.5,0.1-0.7l-17-24c-0.2-0.2-0.5-0.3-0.7-0.1
					c-0.2,0.2-0.3,0.5-0.1,0.7l17,24C230.9,119.8,231.1,119.9,231.2,119.9L231.2,119.9z"/>
			</g>
			<path class="st9" d="M235.4,125.3c-0.1,0-0.2-0.1-0.3-0.2c-0.1-0.2-0.1-0.4,0.1-0.6c0.1-0.1,3-2.2,6.4-2.7c0.2,0,0.4,0.1,0.4,0.3
				c0,0.2-0.1,0.4-0.4,0.4c-3.1,0.4-5.9,2.5-6,2.5C235.6,125.2,235.5,125.3,235.4,125.3L235.4,125.3z"/>
			<path class="st9" d="M235.8,124.9c0,0-0.1,0-0.1,0c-0.2-0.1-0.3-0.3-0.2-0.5c0.6-1.6,2.1-3.1,2.2-3.2c0.2-0.2,0.4-0.2,0.6,0
				c0.2,0.2,0.1,0.4,0,0.6c0,0-1.5,1.4-2,2.8C236.2,124.8,236,124.9,235.8,124.9L235.8,124.9z"/>
			<path class="st13" d="M217.3,153.8c-0.4,0.5-1.7,2.1-1.9,2.2c-3,2.7-7.5,2.5-9.5,4.3c0,0-13.8,7.6-11.1,9.3
				c1.5,0.9,4.1,0.1,6.2-0.9c-0.1,0.2-0.2,0.3-0.3,0.4c-1.9,2.8-7.5,5.4-6,7.7c1.4,2.4,5-0.2,5-0.2s0.7,2.6,4.8,1.7
				c0,0,1.2,2.2,3.8,1.6c0,0,1.9,2.4,4.5,1.2c2.2-1,7.1-6.9,13.6-17.1C225.1,160,222.3,156.7,217.3,153.8L217.3,153.8z"/>
		</g>
	</g>
</g>
</svg>
